
<svg xmlns="http://www.w3.org/2000/svg" width="73" height="90" version="1.1"><rect fill="#FFFFFF" x="0" y="0" width="72" height="70"/><path d="M72 78.8C72 81.9 69.5 84.5 66.4 84.5 66.4 84.5 42.4 84.5 42.4 84.5 39.3 84.5 36.2 87 36 90 35.9 87 32.7 84.5 29.7 84.5L5.7 84.5C2.6 84.5 0.1 82.1 0 79.1L0 76.6 0 62.3 0.4 62.5C7.1 62.2 10.7 57.4 17.6 57.4 19.8 57.3 22.4 57.9 25.2 59.1 29.6 60.9 34.5 63.5 39.1 62 46.3 59.7 49.8 56.8 55.4 57.5 61 58.2 66.4 61.6 72 62.7L72 78.7C72 78.7 72 78.8 72 78.8L72 78.8Z" fill="#2E93D0"/><path d="M0 54.3C4.9 51.8 12.4 44.8 17 38.9L20.2 34.9 19.6 37.8 21.8 34.1 20.6 38.6 24.2 35.3 24.5 40.2 27.1 35 29.6 38.6 29.6 35.2 38 41.5 34.1 36.6 37.7 39 39 35.9 43.6 40.3 43.4 37.1 52 42 46.7 38.1 49.9 39.2 50.9 37.4 53.2 39.1 53.1 37.1 56.9 41.4C60.5 45.4 68.4 51.9 72 54.3L72 58.4C66.4 57.4 61 53.9 55.5 53.2 49.8 52.5 46.4 55.4 39.1 57.7 34.5 59.2 29.7 56.6 25.2 54.8 22.5 53.6 19.8 53 17.6 53.1 10.7 53.1 7.2 57.9 0.4 58.2L0 58 0 54.3 0 54.3 0 54.3Z" fill="#000000"/><path d="M26.2 20.2C25.9 20.4 25.3 21.3 25.1 22.3 24.9 22.1 24.6 21.8 24.3 21.5 23.7 22.8 25 25.8 25.5 27.2L26.9 27.2C27.4 25.8 28.7 22.8 28.1 21.5 27.8 21.8 27.5 22.1 27.2 22.3 27.1 21.3 26.5 20.4 26.2 20.2L26.2 20.2 26.2 20.2Z" fill="#D81E05"/><path d="M38.2 23.4C37.9 23.6 37.4 24.6 37.2 25.6 36.9 25.3 36.6 25 36.3 24.7 35.7 26 37 29 37.5 30.5L39 30.5C39.4 29 40.7 26 40.1 24.7 39.9 25 39.6 25.3 39.3 25.6 39.1 24.6 38.5 23.6 38.2 23.4L38.2 23.4 38.2 23.4Z" fill="#D81E05"/><path d="M50.1 26C49.8 26.2 49.3 27.2 49.1 28.2 48.8 27.9 48.5 27.6 48.2 27.4 47.6 28.6 48.9 31.7 49.4 33.1L50.9 33.1C51.4 31.7 52.6 28.6 52.1 27.4 51.8 27.6 51.5 27.9 51.2 28.2 51 27.2 50.4 26.2 50.1 26L50.1 26 50.1 26Z" fill="#D81E05"/><path d="M36 10.7C49.9 10.7 61.2 22 61.2 35.9 61.2 38.5 60.8 41 60.1 43.4 57 40.6 53.7 36.1 51.6 33.6L53 29.8C53.2 29.2 53.3 28.7 53.3 28.1 53.2 27.4 52.8 26.7 52.4 26L51.6 26.7C51.3 25.9 50.9 25.3 50.2 24.9 49.5 25.3 49 25.9 48.7 26.7L47.9 25.9C47.5 26.6 47.1 27.3 47.1 28 47 29.5 48.2 32.1 48.7 33.5 47.8 34.7 46.7 36 45.5 36.9 43.3 35.2 41.7 33.4 39.8 31.1L41.1 27.2C41.3 26.6 41.4 26 41.4 25.5 41.4 24.8 41 24 40.5 23.3L39.7 24.1C39.5 23.3 39 22.7 38.3 22.3 37.6 22.7 37.2 23.3 36.9 24.1L36.1 23.3C35.6 24 35.3 24.7 35.2 25.4 35.2 26 35.3 26.6 35.5 27.2L36.9 31.1C35.8 32.7 34.2 34.1 32.7 35.4 30.5 32.8 29.1 30.4 27.7 27.7L29.1 23.9C29.3 23.3 29.4 22.8 29.4 22.2 29.3 21.5 28.9 20.8 28.5 20.1L27.7 20.8C27.4 20 27 19.4 26.3 19 25.6 19.4 25.1 20 24.8 20.8L24 20.1C23.6 20.7 23.2 21.4 23.2 22.1 23.2 22.7 23.2 23.3 23.5 23.9L24.5 27.6C23.7 28.8 20.8 32.7 18 36.4 15.4 39.7 12.9 42.6 12.1 43.5 11.3 41 10.8 38.6 10.8 35.9 10.8 22 22.1 10.7 36 10.7L36 10.7 36 10.7Z" fill="#D81E05"/><path d="M28.3 6.1L33.9 5.2 31.5 8 28.3 6.1 28.3 6.1 28.3 6.1Z" fill="#2E93D0"/><path d="M38.1 5.2L43.7 6.1 40.5 8 38.1 5.2 38.1 5.2Z" fill="#2E93D0"/><path d="M47.8 7.5L52.8 10.1 49.2 10.9 47.8 7.5 47.8 7.5Z" fill="#2E93D0"/><path d="M56.2 12.6L60.2 16.7 56.5 16.3 56.2 12.6 56.2 12.6Z" fill="#2E93D0"/><path d="M62.7 20.3L65.1 25.4 61.7 23.9 62.7 20.3 62.7 20.3Z" fill="#2E93D0"/><path d="M66.3 29.4L67 35 64.3 32.6 66.3 29.4 66.3 29.4 66.3 29.4Z" fill="#2E93D0"/><path d="M66.9 39.2L65.9 44.8 64 41.5 66.9 39.2 66.9 39.2 66.9 39.2Z" fill="#2E93D0"/><path d="M19.2 10.1L24.3 7.5 22.9 10.9 19.2 10.1 19.2 10.1Z" fill="#2E93D0"/><path d="M11.9 16.7L15.8 12.7 15.5 16.3 11.9 16.7 11.9 16.7Z" fill="#2E93D0"/><path d="M6.9 25.3L9.4 20.2 10.3 23.8 6.9 25.3 6.9 25.3Z" fill="#2E93D0"/><path d="M5 34.8L5.8 29.2 7.8 32.3 5 34.8 5 34.8Z" fill="#2E93D0"/><path d="M6.1 44.5L5.1 38.9 7.9 41.3 6.1 44.5 6.1 44.5 6.1 44.5Z" fill="#2E93D0"/><path d="M23.9 12.3L26.2 6.6 31.5 9.8C28.8 10.3 26.3 11.1 23.9 12.3L23.9 12.3 23.9 12.3Z" fill="#D81E05"/><path d="M16.9 17.5L17.3 11.3 23.3 12.6C20.9 13.9 18.8 15.5 16.9 17.5L16.9 17.5 16.9 17.5Z" fill="#D81E05"/><path d="M12.1 24.4L10.5 18.3 16.7 17.7C14.8 19.7 13.3 21.9 12.1 24.4L12.1 24.4 12.1 24.4Z" fill="#D81E05"/><path d="M9.6 32.6L6.1 27.3 11.9 24.8C10.7 27.2 9.9 29.8 9.6 32.6L9.6 32.6 9.6 32.6Z" fill="#D81E05"/><path d="M9.8 40.9L4.9 36.9 9.6 32.7C9.4 33.8 9.4 34.9 9.4 36.1 9.4 37.7 9.5 39.4 9.8 40.9L9.8 40.9 9.8 40.9Z" fill="#D81E05"/><path d="M62.5 33L67.2 37.2 62.2 41.2C62.5 39.5 62.7 37.8 62.7 36.1 62.7 35 62.6 34 62.5 33L62.5 33 62.5 33Z" fill="#D81E05"/><path d="M60.2 24.9L65.9 27.4 62.5 32.7C62.1 30 61.3 27.3 60.2 24.9L60.2 24.9 60.2 24.9Z" fill="#D81E05"/><path d="M55.5 17.9L61.6 18.5 60 24.5C58.8 22 57.3 19.8 55.5 17.9L55.5 17.9 55.5 17.9Z" fill="#D81E05"/><path d="M48.7 12.6L54.6 11.2 55 17.4C53.2 15.5 51 13.9 48.7 12.6L48.7 12.6 48.7 12.6Z" fill="#D81E05"/><path d="M40.4 9.8L45.7 6.6 48 12.3C45.7 11.1 43.1 10.2 40.4 9.8L40.4 9.8 40.4 9.8Z" fill="#D81E05"/><path d="M32.1 9.7L36 5 40 9.7C38.7 9.5 37.4 9.4 36 9.4 34.7 9.4 33.4 9.5 32.1 9.7L32.1 9.7 32.1 9.7Z" fill="#D81E05"/><path d="M8.2 47L6.7 46.4 9.8 41C10 42.1 10.3 43.1 10.7 44.2 10.7 44.3 10.8 44.4 10.8 44.5 10.7 44.6 10.6 44.6 10.5 44.7 9.8 45.5 9 46.3 8.2 47L8.2 47 8.2 47Z" fill="#D81E05"/><path d="M62.2 41L65.3 46.5 63.7 47.1C62.8 46.3 61.9 45.6 61.1 44.8 61.5 43.5 61.9 42.2 62.2 41L62.2 41 62.2 41Z" fill="#D81E05"/></svg>