<svg xmlns="http://www.w3.org/2000/svg" xml:space="preserve" width="197.7mm" height="147.3mm" version="1.1" style="shape-rendering:geometricPrecision; text-rendering:geometricPrecision; image-rendering:optimizeQuality; fill-rule:evenodd; clip-rule:evenodd"
viewBox="0 0 19770 14730"
 xmlns:xlink="http://www.w3.org/1999/xlink">
 <g id="Layer_x0020_1">
  <metadata id="CorelCorpID_0Corel-Layer"/>
  <g id="_716712608">
   <g>
    <path fill="#3061A8" fill-rule="nonzero" d="M18690.29 4092.26l-39.25 24.79c-195.12,113.68 -390.29,227.29 -585.45,340.92 -13.41,7.81 -27.08,15.19 -40.2,23.47 -38.66,24.41 -42.29,36.31 -20.22,75.18 29.78,52.46 60.32,104.52 91.2,156.34 28.65,48.06 37.77,50.47 85.69,22.6 205.65,-119.6 411.13,-239.47 616.69,-359.21 72,-41.95 72.83,-41.73 114.25,29.43 13,22.35 26.58,44.4 38.7,67.22 16.58,31.19 13.03,44.72 -16.07,64.87 -9.89,6.85 -20.82,12.18 -31.25,18.26 -201.09,117.15 -402.17,234.3 -603.25,351.47 -10.42,6.08 -21.36,11.48 -31.06,18.57 -26.53,19.42 -30.17,32.24 -13.85,61.15 33.9,60.05 68.51,119.71 104.06,178.78 24.47,40.68 35.88,42.9 79.36,17.65 208.7,-121.2 417.23,-242.71 625.81,-364.12 8.94,-5.21 17.57,-10.99 26.77,-15.66 27.58,-14.02 42.02,-13.07 57.72,10.95 24.47,37.46 45.69,77.06 68.05,115.88 10.69,18.56 2.88,33.77 -11.46,45.39 -11.95,9.68 -25.81,17.11 -39.18,24.91 -199.55,116.37 -399.16,232.64 -598.75,348.93 -11.92,6.95 -24.25,13.31 -35.57,21.12 -28.23,19.49 -30.91,29.12 -18.61,60.22 16.09,40.67 14.47,48.85 -22.59,70.82 -84.52,50.11 -169.46,99.54 -254.78,148.26 -32.84,18.76 -46.57,14.44 -67.75,-18.54 -13.95,-21.74 -26.92,-44.19 -39.06,-67 -15.49,-29.08 -13.08,-42.46 14.56,-60.63 31.66,-20.8 65.2,-38.72 97.83,-58.05 53.81,-31.87 56.09,-39.6 25.11,-92.82 -169.13,-290.51 -338.44,-580.91 -507.64,-871.39 -36.55,-62.77 -35.35,-67.71 26.68,-103.85l795.65 -462.97c17.53,-10.2 35.88,-7.87 46.2,8.09 27.11,41.89 51.53,85.53 76.81,128.59 7.43,12.69 -4.61,33.72 -15.15,40.38z"/>
    <path fill="#3061A8" fill-rule="nonzero" d="M7671.53 660.56c-0.54,-164.65 77.73,-282.84 230.95,-345.48 36.55,-14.94 75.02,-25.3 112.88,-36.86 41.05,-12.53 46.61,-19.55 44.22,-61.29 -2.17,-38.16 5.44,-49.32 42.86,-56.27 35.58,-6.6 71.42,-12.03 107.36,-16.23 30.34,-3.56 43.46,6.83 52.28,37.05 15.77,54.15 15.89,52.93 69.33,54.13 46.41,1.04 93.23,2.14 139.01,8.96 133.12,19.82 221.81,97.81 270.96,220.53 45.96,114.78 51.86,231.38 2.35,347.38 -34.91,81.79 -95.71,138.65 -176.11,173.76 -39.31,17.16 -80.69,30.14 -121.97,42.1 -57.73,16.74 -61.4,20.09 -56.55,77.6 0.43,5.16 1.52,10.25 1.98,15.4 2.22,24.49 -9.01,40.68 -32.71,44.87 -40.72,7.21 -81.72,13.07 -122.79,18 -23.95,2.88 -39.25,-9.65 -45.26,-32.9 -1.72,-6.64 -1.92,-13.67 -3.3,-20.42 -10.92,-53.33 -15.96,-55.71 -72.92,-56.98 -48.09,-1.08 -96.63,-2.67 -144.04,-10.03 -122.78,-19.05 -204.78,-92.81 -256.65,-202.47 -29.95,-63.31 -42.67,-130.82 -41.88,-200.85zm201.37 5.59l0 0c2.34,16.55 4.35,46.01 10.92,74.42 24.94,107.79 104.44,166.31 215.17,160.2 41.11,-2.26 53.69,-14.91 48.36,-54.84 -15.73,-117.86 -32.42,-235.59 -49.59,-353.25 -5.86,-40.15 -20.5,-49.16 -60.19,-41.08 -102.96,20.96 -163.92,95.71 -164.67,214.55zm704.32 -11.51l0 0c-4.15,-27.16 -6.83,-54.65 -12.69,-81.44 -23.78,-108.72 -94.94,-164.79 -206.34,-163.9 -51.33,0.41 -61.61,10.91 -55.43,61.12 8.42,68.43 18.21,136.7 27.46,205.03 6.47,47.83 11.85,95.85 19.88,143.42 6.15,36.42 20.7,46.44 51.69,41.04 108.2,-18.87 174.25,-97.12 175.43,-205.27z"/>
    <path fill="#3061A8" fill-rule="nonzero" d="M7421.6 14455.62c-55.79,-10.21 -137.26,-23.68 -218.1,-40.29 -107.9,-22.17 -215.32,-46.68 -322.91,-70.37 -56.17,-12.38 -62.82,-22.83 -50.71,-78.14 64.05,-292.59 128.12,-585.18 192.22,-877.75 1.47,-6.73 3.11,-13.43 5.09,-20.02 11.11,-36.86 22.14,-45.2 60.01,-37.73 64.16,12.66 127.96,27.17 191.76,41.6 88.97,20.13 178.26,39.1 266.47,62.2 39.53,10.36 79.76,24.58 114.49,45.61 168.59,102.12 166.77,328.39 -1.82,429.63 -5.9,3.55 -12.51,6 -18.13,9.9 -22.01,15.29 -23.45,26.53 -5.77,45.3 4.68,4.97 10.77,8.62 15.74,13.36 71.94,68.67 98.5,150.66 75.41,248.66 -31.37,133.09 -145.27,227.39 -303.75,228.04zm99.56 -320.01l0 0c0.55,-54.27 -27.16,-91.56 -73.07,-115.72 -21.12,-11.11 -44.36,-19.34 -67.57,-25.18 -70.16,-17.62 -140.62,-34.08 -211.25,-49.68 -38.61,-8.53 -53.89,1.33 -63.16,40.76 -13,55.33 -24.49,111.03 -35.81,166.74 -8.27,40.68 -1.74,53.21 39.05,62.35 85.69,19.22 171.51,38.48 258.06,53.11 85.58,14.48 152.72,-45.73 153.75,-132.38zm-89.8 -311.12l0 0c84.36,1.05 132.09,-37.89 143.36,-101.02 9.51,-53.23 -20.73,-99.23 -80.58,-122.33 -8.03,-3.1 -16.14,-6.29 -24.49,-8.21 -72.15,-16.58 -144.27,-33.34 -216.61,-49.04 -31.22,-6.77 -47.99,1.28 -55.32,29.79 -12.85,49.99 -22.73,100.76 -33.35,151.3 -5.07,24.08 5.4,42.87 28.15,48.1 85.49,19.68 171.51,37.09 238.84,51.41z"/>
    <path fill="#3061A8" fill-rule="nonzero" d="M12060.43 13464.53c165.16,-2.22 282.92,116.23 272.71,268.83 -3.32,49.65 -22.71,92.91 -52.48,132.5 -25.72,34.2 -22.99,43.44 19.11,56.73 112.59,35.54 177.95,124.07 183.9,247.99 5.8,120.64 -62.35,231.61 -173.57,274.34 -62.29,23.94 -128.44,38.81 -193.78,53.63 -122.53,27.81 -245.72,52.76 -368.7,78.59 -45.62,9.58 -58.48,1.57 -68.25,-44.34 -64.12,-301.38 -127.97,-602.81 -191.63,-904.29 -7.57,-35.85 -0.82,-52.41 31.14,-58.99 173.59,-35.76 347.57,-69.64 521.46,-103.92 8.36,-1.65 17.17,-0.94 20.09,-1.07zm31.87 580.87l0 0c-62.81,12.74 -155.72,30.46 -248.04,50.94 -29.71,6.58 -36.59,21.22 -30.64,54.94 7.76,44.06 17.88,87.71 27.4,131.44 19.87,91.33 20.12,91.94 111.71,72.42 69.01,-14.7 137.86,-30.34 206.31,-47.45 45.45,-11.35 82.01,-36.24 99.98,-81.83 35.42,-89.88 -33.86,-181.88 -166.72,-180.46zm-87.55 -402.03l0 0c-71.65,14.83 -161.15,32.38 -250.09,52.46 -22.16,4.99 -33.18,23.14 -27.82,47.94 10.58,48.8 19.37,98.03 31.53,146.42 8.31,33.04 22.73,40.97 57.05,33.92 70.83,-14.55 141.74,-29.03 211.8,-46.8 24.31,-6.17 48.57,-18.79 68.63,-34.03 40.57,-30.82 51.67,-77.72 34.68,-125.33 -16.23,-45.48 -57.36,-74 -125.78,-74.58z"/>
    <path fill="#3061A8" fill-rule="nonzero" d="M18380.09 9066.83c53.15,-158.27 108.26,-315.89 163.58,-473.42 16.02,-45.59 28.49,-50.94 73.42,-35.05 287.23,101.59 574.42,203.34 861.47,305.47 51.7,18.39 56.38,28.97 38.05,80.47 -47.92,134.58 -95.46,269.32 -145.12,403.27 -14.27,38.5 -31.87,76.66 -53.78,111.29 -53.06,83.85 -132.8,127.3 -230.77,120.84 -100.3,-6.62 -173.82,-60.27 -213.3,-155.55 -3.94,-9.52 -6.4,-21.93 -13.72,-27.16 -8,-5.72 -21.69,-7.98 -31.35,-5.56 -8.89,2.22 -15.54,12.89 -23.51,19.44 -79.23,65.11 -166.73,77.33 -261.3,39.41 -100.46,-40.29 -170.85,-129.91 -187.27,-229.78 -7.36,-44.87 9.33,-111.16 23.6,-153.67zm399.27 151.35c16.67,-21.5 31.65,-45.54 41.69,-70.7 28.04,-70.23 53.77,-141.4 79.08,-212.67 12.66,-35.65 5.93,-50.95 -28.99,-64.25 -54.6,-20.82 -109.86,-39.98 -165.25,-58.65 -37.65,-12.68 -52.29,-5.77 -66.55,33.49 -25.81,71.1 -50.08,142.76 -74.32,214.41 -5.48,16.21 -9.51,33.16 -11.96,50.09 -9.16,63.15 20.5,116.57 71.43,140.32 52.78,24.62 117.58,16.09 154.87,-32.04zm206.92 57.75c8.84,44.55 37.89,76.36 79.51,89.51 50.59,15.99 94,0.9 125.16,-45.56 10.43,-15.54 18.59,-33.02 25.22,-50.59 24.3,-64.33 48.04,-128.89 70.94,-193.73 14.33,-40.55 7.52,-54.1 -34.29,-69.97 -38.57,-14.64 -77.63,-28.04 -116.64,-41.51 -45.37,-15.67 -58.57,-10.61 -74.42,33.18 -23.4,64.65 -45.4,129.83 -66.84,195.16 -9.07,27.66 -14.32,54.9 -8.64,83.51z"/>
    <path fill="#3061A8" fill-rule="nonzero" d="M17619.85 4169.29c-61.02,-0.07 -116.79,-16.84 -163.93,-54.6 -37.51,-30.04 -73.67,-62.55 -106.26,-97.82 -97.07,-105.08 -192.23,-211.92 -287.84,-318.34 -38.3,-42.62 -38.24,-49.35 4.14,-87.67 225,-203.46 450.23,-406.67 675.57,-609.76 40.7,-36.68 50.99,-36.17 88.61,5.41 145.69,161.05 291.15,322.31 436.34,483.81 33.5,37.26 32.75,47.62 -2.61,81.07 -18.78,17.76 -38.35,34.69 -57.73,51.79 -18.87,16.65 -37.38,15.14 -54.81,-2.24 -8.54,-8.51 -16.53,-17.57 -24.61,-26.52 -94.72,-104.9 -189.26,-209.96 -284.16,-314.69 -39.72,-43.83 -47.9,-44.05 -92.21,-4.68 -29.64,26.32 -59.33,52.62 -88.17,79.8 -33.83,31.88 -34.61,42.89 -4.19,77.29 46.79,52.95 95.59,104.16 141.53,157.83 30.17,35.22 59.3,71.85 84.54,110.68 63.98,98.42 67.37,202.04 9.78,303.23 -59.58,104.7 -152,161.24 -273.99,165.41zm106.53 -334.75l0 0c0.11,-32.21 -13.03,-70.64 -47.31,-112.36 -50.29,-61.23 -103.16,-120.43 -156.51,-179.06 -24.6,-27.03 -38.06,-26.92 -65.94,-2.7 -44.25,38.43 -87.84,77.68 -130.49,117.88 -29.48,27.79 -30.28,39.74 -3.54,69.65 51.72,57.82 104.25,114.96 157.96,170.92 16.45,17.15 36.27,32.52 57.25,43.59 82.17,43.35 188.27,-18.12 188.58,-107.92z"/>
    <path fill="#3061A8" fill-rule="nonzero" d="M9562.13 488.09c-101.56,178.26 -204.1,356 -303.1,535.68 -26.45,47.99 -57.98,74.55 -114.09,69.41 -23.88,-2.18 -48.23,1.07 -72.38,1.33 -51.59,0.55 -60.92,-7.93 -63.15,-58.41l-33.43 -894.53c-0.43,-12.07 -0.98,-24.14 -0.87,-36.21 0.25,-27.13 15.34,-41.98 41.25,-43.53 37.85,-2.27 75.84,-3.02 113.77,-2.99 22.21,0.03 35.2,14.09 37.98,35.14 2.92,22.17 3.41,44.69 4.28,67.09 6.21,160.27 12.12,320.57 18.52,480.83 1.14,28.49 8.3,84.4 39.66,34.71l319.39 -573.94c25.15,-46.48 55.88,-64.38 110.22,-65.68l72.34 -1.75c51.63,-1.24 61.3,7.25 63.43,57.53 6.29,148.19 12.54,296.39 18.28,444.6 6.02,155.12 11.38,310.25 17.15,465.38 1.91,51.07 -5.95,60.54 -56.73,64.32 -29.23,2.18 -58.56,4.45 -87.84,4.31 -34.2,-0.18 -46.19,-11.38 -48.91,-46.13l-20.87 -522.17c-2.82,-70.74 -19.86,-76.52 -54.9,-14.99z"/>
    <path fill="#3061A8" fill-rule="nonzero" d="M6246.93 14173.32c-118.86,-4.44 -236.44,-39.61 -338.72,-116.82 -129.98,-98.11 -186.41,-232.68 -177.95,-392.73 6.56,-123.97 44.81,-240.09 108.87,-347.04 82.36,-137.52 258.17,-263.94 481.82,-213.98 60.06,13.41 121.05,30.73 175.93,57.8 165.9,81.82 255.98,218.52 259.14,403.89 2.71,159.46 -43.98,306.9 -142.06,434.3 -89.82,116.66 -210.83,173.98 -367.03,174.58zm298.26 -589.55l0 0c0.8,-152.65 -67.75,-248.31 -189.86,-288.75 -121.75,-40.31 -237.34,-5.63 -310.79,98.99 -68.1,97 -102.12,206.81 -99.53,325.66 2.6,119.48 79.58,217.88 193.48,253.85 113.73,35.91 226.01,1.46 299.25,-95.25 70.94,-93.66 99.89,-202.54 107.45,-294.5z"/>
    <path fill="#3061A8" fill-rule="nonzero" d="M3265.47 12745.11c-137.63,-3.85 -270.86,-81.4 -377.57,-204.34 -119.03,-137.13 -142.27,-295.75 -77.56,-464.43 49.12,-128.05 127.52,-237.7 238.82,-318.82 143.28,-104.43 299.33,-126.97 463.55,-51.61 92.16,42.3 172.05,102.02 233.47,183.76 81.08,107.92 112.81,229.72 82.53,361.25 -42.03,182.58 -144.82,325.94 -302.01,428.59 -69.61,45.46 -147.64,65.18 -261.23,65.6zm-3.79 -197.68l0 0c49.6,0.53 96.2,-11.56 137.41,-38.69 113.93,-75 187.98,-179.98 226.77,-310.09 5.35,-17.95 8.61,-37.17 8.88,-55.86 1.62,-115.82 -57.14,-195.89 -154.79,-249.33 -94.95,-51.95 -190.18,-46.02 -278.12,15.81 -98.89,69.52 -166.89,164.79 -202.56,279.83 -65.68,211.87 117.06,363.44 262.41,358.33z"/>
    <path fill="#3061A8" fill-rule="nonzero" d="M10018.34 14145.36c1.93,-105.59 18.89,-206.31 73.89,-298.25 66.24,-110.77 160.74,-182.74 287.45,-210.67 83.33,-18.37 167.25,-22.97 251.59,-7.27 185.38,34.53 306.15,144.23 362.61,321.89 39.28,123.61 44.22,250.64 14.55,378.02 -46.43,199.31 -201.85,338.39 -406.08,356.93 -63,5.72 -128.57,6.87 -190.53,-3.92 -202.82,-35.32 -340.49,-179.55 -377.01,-387.97 -8.6,-49.04 -11.14,-99.15 -16.47,-148.76zm218.98 3.1l0 0c-0.55,61.64 8.14,131.44 36.99,197.37 47.42,108.36 148.18,170.46 267.83,166 112.43,-4.2 208.94,-73.35 244.18,-183.66 40.18,-125.78 35.28,-252.8 -17.49,-373.95 -45.96,-105.52 -134,-155.73 -247.4,-154.56 -116.52,1.21 -205.19,52.4 -254.22,162.2 -25.14,56.3 -30.41,116.19 -29.89,186.6z"/>
    <path fill="#3061A8" fill-rule="nonzero" d="M15025.88 1414.42c-10.95,153.21 -68.06,308 -188.16,433.79 -113.09,118.45 -254.22,159.63 -415.51,128.12 -98.13,-19.17 -187.38,-58.74 -265.04,-121.87 -127.81,-103.89 -182.55,-240.31 -165.53,-402.51 13.93,-132.84 64.85,-253.64 145.26,-360.24 122.03,-161.8 305.76,-221.06 501.08,-165.01 75.26,21.58 145.37,53.81 207.56,101.85 119.84,92.61 179.33,214.96 180.34,385.87zm-822.56 76.82l0 0c-1.51,149.27 66.56,246.85 184.56,289.41 110.63,39.9 224.29,8.24 301.7,-86.27 69.42,-84.76 109.9,-183.29 124.55,-291.07 16.48,-121.2 -43.59,-225.78 -154.09,-278.14 -115.66,-54.8 -234.35,-36.93 -317.56,53.5 -87.07,94.62 -130.36,209.24 -139.16,312.57z"/>
    <path fill="#3061A8" fill-rule="nonzero" d="M1070.76 4529.5c162.17,11.57 325.96,81.01 454.32,220.22 102.42,111.07 134.7,245.81 103.04,394.18 -24.32,113.89 -75.53,214.53 -158.08,297.12 -98.45,98.5 -218.94,143.6 -357.28,127.94 -179.61,-20.34 -335.31,-94.47 -452.31,-234.3 -105.21,-125.75 -129.19,-271.44 -78.51,-427.63 35.74,-110.18 91.84,-207.92 184.36,-281.25 81.35,-64.49 174.24,-95.75 304.46,-96.28zm76.96 830l0 0c141.71,0.13 239.22,-68.12 282.4,-180.67 41,-106.88 13.12,-221.08 -76.75,-300.18 -83.4,-73.4 -181.37,-119.35 -290.78,-137.73 -113.09,-19 -215.07,33.17 -273.47,135.53 -61.1,107.08 -56.82,220.41 19.63,308.66 94.99,109.67 221.08,160.07 338.97,174.39z"/>
    <path fill="#3061A8" fill-rule="nonzero" d="M16314.64 2839.51c-0.79,-57.6 9.21,-113.34 31.27,-166.5 60.58,-146.06 155.19,-265.78 291.83,-345.44 149.71,-87.27 304.66,-90.01 457.05,-1.67 87.74,50.86 162.9,116.04 216.33,203.37 73.75,120.54 88.89,249.41 42.22,382.21 -54.4,154.81 -153.21,277.28 -292.91,363.12 -130.64,80.27 -269.78,89.38 -410.89,28.12 -110.18,-47.84 -198.89,-123.19 -265,-223.69 -47.62,-72.38 -71.05,-152.55 -69.9,-239.52zm206.79 28.97l0 0c1.99,112.88 58.04,192.92 155.23,244.04 98.64,51.88 194.27,35.45 282.48,-26.81 81.85,-57.76 144.17,-133.85 186.04,-224.54 16.27,-35.24 28.42,-75.26 30.32,-113.71 5.88,-118.04 -56.31,-199.52 -155.11,-254.18 -99.52,-55.07 -196.58,-40.17 -286.72,24 -77.25,54.99 -135.11,127.6 -178.07,211.77 -22.18,43.46 -35.35,89.75 -34.17,139.43z"/>
    <path fill="#3061A8" fill-rule="nonzero" d="M4426.75 2381.25c-157.92,-0.81 -268.63,-53.95 -357.41,-151.69 -88.63,-97.58 -149.2,-211.84 -174.4,-341.2 -37.33,-191.63 19.36,-350.83 179.01,-468.22 81.73,-60.11 172.65,-101.43 273.79,-114.59 138.06,-17.95 260.94,21.24 362.03,115.73 122.46,114.46 197.67,257.47 216.79,423.99 18.65,162.31 -40.12,298.21 -168.27,401.03 -103.59,83.1 -220.87,132.61 -331.54,134.95zm-59.68 -891.64l0 0c-13.52,2.31 -34.1,4.71 -54.13,9.43 -142.03,33.53 -238.17,160.44 -219.21,295.83 16.99,121.25 69.84,227.53 157.67,313.06 70.99,69.14 157.04,97.37 256.38,72.74 130.35,-32.31 224.42,-155.09 210.64,-282.08 -14.06,-129.59 -71.38,-240.44 -162.73,-332.63 -49.21,-49.66 -111.21,-74.07 -188.62,-76.35z"/>
    <path fill="#3061A8" fill-rule="nonzero" d="M18400.86 9614.5c22.32,4.07 65.62,8.04 106.49,20.17 147.36,43.75 275.26,120.62 367.81,244.82 98.42,132.08 122.36,278.94 60.46,434.65 -46.81,117.76 -116.3,219.09 -226.43,287.09 -101.27,62.54 -211.39,83.26 -327.48,56.87 -157.7,-35.86 -291.1,-115.16 -393.94,-240.56 -94.8,-115.61 -123.77,-249.43 -85.38,-393.37 38.58,-144.64 118.54,-263.12 246.98,-344.5 70.1,-44.42 148.07,-63.78 251.49,-65.17zm372.63 566.75l0 0c1.16,-75.14 -29.43,-137.67 -80.29,-190.07 -70.89,-73.02 -155.75,-124.48 -253.8,-153.02 -57.73,-16.8 -115.38,-17.24 -172.72,2.91 -188.83,66.37 -245.59,296.43 -108.46,447.56 70.9,78.13 159.58,132.17 260.78,160.97 181.33,51.6 353.96,-80.67 354.49,-268.35z"/>
    <path fill="#3061A8" fill-rule="nonzero" d="M15298.2 1931.86c-31.81,55.29 -62.34,111.36 -91.84,167.92 -13.81,26.49 -9.35,40.31 14.46,57.36 9.75,6.98 20.94,11.97 31.53,17.75 124.15,67.7 248.33,135.35 372.44,203.1 12.1,6.61 24.56,12.89 35.56,21.05 17.32,12.83 22.94,30.23 12.54,50.08 -14.39,27.48 -28.51,55.25 -45.11,81.4 -17.04,26.87 -30.41,28.91 -60.95,14.43 -4.66,-2.21 -9.15,-4.79 -13.7,-7.27 -192.31,-104.79 -384.63,-209.57 -576.88,-314.47 -10.55,-5.76 -21.51,-11.42 -30.55,-19.15 -14.43,-12.34 -19.82,-27.83 -9.6,-46.07 5.9,-10.53 11.28,-21.34 17.06,-31.94 140.33,-257.4 280.68,-514.78 421.03,-772.16 3.31,-6.05 6.55,-12.14 10.01,-18.11 25.97,-44.76 35.94,-47.98 82.1,-22.89 187.86,102.15 375.61,204.48 563.19,307.14 48.64,26.61 51.67,37.9 26.63,85.21 -9.68,18.29 -19.08,36.79 -29.93,54.38 -21.45,34.78 -34.75,38.59 -72.06,18.59 -85.11,-45.62 -169.76,-92.11 -254.56,-138.31 -46.94,-25.58 -93.57,-51.73 -140.8,-76.78 -37.11,-19.68 -49.33,-16.39 -71.01,20.35 -20.14,34.15 -38.73,69.23 -57.36,104.25 -22.4,42.08 -19.24,54.61 23.41,78.19 101.12,55.91 202.8,110.77 304.24,166.08 19.69,10.72 39.95,20.54 58.86,32.51 29.68,18.79 33.51,32.9 18,64.46 -11.41,23.19 -23.51,46.15 -36.97,68.21 -20.47,33.52 -32.87,37.08 -67.6,18.3 -118.32,-63.97 -236.24,-128.69 -354.41,-192.93 -10.25,-5.57 -20.9,-10.44 -33.19,-16.21 -17.7,-8.27 -35.47,9.77 -44.54,25.53z"/>
    <path fill="#3061A8" fill-rule="nonzero" d="M5763.4 12962.79c-6.39,16.99 -10.3,28.36 -14.9,39.45 -115.46,278.56 -230.97,557.1 -346.61,835.6 -4.6,11.08 -9.1,22.62 -16.01,32.25 -10.77,15.03 -25.16,23.21 -44.67,15.02 -39.73,-16.66 -80.25,-31.6 -119.15,-49.99 -29.2,-13.8 -33.67,-30.31 -19.76,-64.19 41.86,-102.02 84.69,-203.63 126.96,-305.49 23.44,-56.47 19.6,-66.59 -35.79,-89.78 -85.82,-35.93 -171.8,-71.51 -257.92,-106.77 -46.97,-19.23 -58.6,-14.71 -78.71,32.9 -42.23,100 -83.24,200.52 -125.26,300.61 -22.54,53.69 -32.55,57.57 -85.54,35.85 -27.1,-11.1 -54.28,-22.09 -80.99,-34.09 -43.37,-19.47 -48.12,-30.92 -29.57,-75.98 64.3,-156.14 129.03,-312.11 193.76,-468.08 50.19,-120.95 100.63,-241.8 150.97,-362.69 4.64,-11.13 8.34,-22.83 14.34,-33.17 14.26,-24.61 28.4,-30.01 55.71,-19.58 35.4,13.51 70.55,27.87 105.03,43.56 37.22,16.93 42.48,30.42 26.7,69.32 -33.7,83.03 -68.4,165.64 -102.79,248.38 -31.67,76.19 -30.94,78.12 44.65,109.59 81.13,33.76 162.16,67.78 243.46,101.15 46.71,19.17 58.67,14.38 78.74,-33.11 35.57,-84.11 70.11,-168.65 105.16,-252.99 4.62,-11.13 8.57,-22.75 14.78,-32.96 10.89,-17.89 26.93,-27.71 48.05,-19.25 41.59,16.66 83.38,33.11 123.55,52.76 11.73,5.74 18.28,22.03 25.81,31.68z"/>
    <path fill="#3061A8" fill-rule="nonzero" d="M3537.04 1937.98c-67.4,48.08 -135.94,94.54 -204.06,141.62 -53.92,37.28 -108.15,74.11 -161.57,112.09 -39.9,28.37 -41.36,39.07 -13.88,79.89 22.16,32.92 44.15,65.99 67.71,97.88 25.39,34.37 37.29,36.42 72.62,12.26 106.76,-73.07 213.03,-146.84 319.5,-220.34 9.94,-6.86 20.16,-13.33 29.82,-20.56 20.63,-15.42 39.71,-11.81 54.29,7.25 20.93,27.36 39.8,56.29 59.34,84.71 10.66,15.5 6.19,30.51 -5.43,42.27 -10.78,10.91 -23.94,19.64 -36.66,28.45 -99.24,68.78 -198.64,137.35 -297.97,206 -9.93,6.86 -20.3,13.22 -29.57,20.9 -28.04,23.24 -30.23,34.49 -9.47,65.46 33.61,50.14 67.73,99.99 103.05,148.93 24.31,33.69 37.52,35.57 72.99,11.22 122.32,-83.94 244.16,-168.57 366.21,-252.9 11.34,-7.84 22.93,-15.35 34.29,-23.17 17.09,-11.75 34.3,-9.72 46.25,5.48 22.32,28.41 43.03,58.21 62.76,88.5 10.8,16.6 6.18,33.6 -8.42,46.5 -10.28,9.09 -21.8,16.85 -33.12,24.68 -175.92,121.67 -351.91,243.24 -527.88,364.83 -8.51,5.89 -16.9,11.97 -25.64,17.5 -19.11,12.11 -36.41,8.45 -50.7,-7.98 -9.02,-10.37 -16.64,-21.99 -24.47,-33.33 -167.8,-242.59 -335.54,-485.22 -503.27,-727.86 -6.87,-9.93 -14.04,-19.7 -20.17,-30.07 -10.21,-17.27 -7.08,-33.41 7.26,-46.71 8.79,-8.16 18.8,-15.11 28.7,-21.97 173.05,-119.76 346.11,-239.5 519.29,-359.06 49.01,-33.84 57.59,-32.29 91.36,15.03 14.02,19.66 27.63,39.62 40.94,59.77 17.54,26.62 -0.31,45.77 -24.1,62.73z"/>
    <path fill="#3061A8" fill-rule="nonzero" d="M19084.17 6285.47c-9.2,-7.57 -22.81,-15.06 -30.86,-26.48 -7.59,-10.75 -9.68,-25.54 -13.58,-38.73 -34.68,-117.28 -69.17,-234.6 -103.83,-351.88 -3.9,-13.2 -7.09,-26.87 -13.05,-39.15 -9.16,-18.85 -24.71,-29.31 -46.42,-23.07 -62.9,18.08 -125.99,35.67 -188.21,55.89 -33.53,10.89 -39.47,26.57 -28.2,65.49 27.76,95.96 56.64,191.59 84.97,287.39 16.13,54.51 32.55,108.93 47.92,163.65 10.44,37.17 3.97,50.37 -31.31,62.96 -25.91,9.26 -52.45,17.11 -79.19,23.64 -27.31,6.66 -42.35,-1.6 -53.5,-27.23 -4.09,-9.42 -6.15,-19.71 -9.07,-29.63 -60.74,-206.55 -121.55,-413.09 -182.17,-619.68 -17.06,-58.11 -11.88,-68.11 45.96,-85.18 287.45,-84.79 574.97,-169.35 862.51,-253.84 55.79,-16.4 65.72,-11.46 82.03,43.51 60.75,204.76 121.14,409.62 181.34,614.54 14.25,48.5 7.94,59.78 -40.21,75.26 -21.3,6.86 -42.86,13.05 -64.53,18.63 -32.75,8.44 -46.99,1.03 -59.16,-30.93 -4.89,-12.84 -7.9,-26.39 -11.8,-39.61 -38.04,-128.84 -75.91,-257.75 -114.21,-386.52 -16.64,-55.95 -26.12,-60.95 -81.04,-45.11 -33.1,9.54 -66.27,18.88 -99.11,29.27 -49.39,15.63 -54.84,25.61 -40.44,75.02 36.12,124.03 72.75,247.91 109.03,371.89 18.03,61.6 14,68.72 -48.43,87.56 -23.05,6.95 -46.18,13.69 -75.44,22.34z"/>
    <path fill="#3061A8" fill-rule="nonzero" d="M1646.34 3584.68l-265.67 353.32c-7.28,9.62 -15.03,18.94 -21.64,29.01 -16.86,25.68 -17.01,39.25 6.09,58.25 38.58,31.73 79.31,60.86 119.15,91.06 18.54,14.05 36.04,10.37 50.65,-5.4 12.83,-13.87 23.88,-29.42 35.33,-44.52 71.86,-94.82 143.49,-189.82 215.44,-284.56 39.06,-51.42 46.65,-52.17 99.39,-12.35 13.75,10.38 27.85,20.39 41,31.5 31.83,26.89 33.79,39.59 8.21,73.83 -55.73,74.58 -112.38,148.47 -168.64,222.66 -27.09,35.72 -54.65,71.09 -81.03,107.33 -23.62,32.44 -22.78,44.75 8.13,69.26 48.61,38.57 98.18,75.99 148.37,112.49 28.03,20.39 42.42,17.65 65.6,-10.85 23.92,-29.42 46.13,-60.23 69.03,-90.47 70.79,-93.47 141.29,-187.14 212.44,-280.34 33.71,-44.16 43.77,-45.09 87.97,-12.27 15.23,11.31 30.65,22.4 45.35,34.37 36.33,29.62 37.94,39.4 10.58,76.47 -32.77,44.39 -66.43,88.12 -99.74,132.11 -98.89,130.58 -197.79,261.15 -296.71,391.71 -7.29,9.62 -14.35,19.47 -22.37,28.46 -16.03,18 -34.26,22 -54.63,6.7 -8.26,-6.21 -16.57,-12.38 -24.82,-18.63 -235.03,-178.03 -470.05,-356.06 -705.07,-534.1 -6.87,-5.2 -13.97,-10.14 -20.57,-15.67 -33.49,-28.11 -35.82,-38.85 -10.05,-73 131.9,-174.79 264.14,-349.33 396.79,-523.56 30.39,-39.92 40.25,-40.61 80.01,-11.45 20.84,15.29 41.83,30.54 61.34,47.44 23.19,20.1 25.19,31.09 10.07,51.2z"/>
    <path fill="#3061A8" fill-rule="nonzero" d="M8983.05 14160.25c5.09,-146.55 10.17,-293.11 15.27,-439.66 0.48,-13.79 -0.01,-27.71 1.73,-41.34 3.02,-23.62 16.74,-38.01 41.14,-37.93 41.4,0.15 82.92,0.15 124.15,3.25 33.78,2.54 43.74,17.02 42.66,57.38 -2.29,86.23 -5.55,172.43 -8.49,258.64 -0.53,15.52 -2.49,31.06 -1.88,46.52 1.17,30.36 13.57,46.18 42.95,47.54 105.12,4.86 210.3,8.56 315.51,11.09 33.81,0.81 46.09,-11.79 49.1,-46.42 2.68,-30.89 2.18,-62.05 3.34,-93.08 2.66,-70.69 4.8,-141.4 8.5,-212.02 2.18,-41.82 12.65,-51.25 53.85,-51.31 32.76,-0.05 65.59,0.79 98.29,2.81 46.5,2.88 57.61,14.18 56.27,60.81 -3.64,125.89 -8.4,251.74 -12.86,377.61 -6.11,172.4 -12.35,344.81 -18.55,517.21 -0.5,13.79 0.05,27.77 -2.12,41.3 -3.74,23.32 -17.62,37.22 -42.22,36.89 -41.41,-0.56 -82.9,-0.32 -124.15,-3.33 -33.05,-2.4 -44.01,-18.58 -42.69,-57.59 3.52,-103.44 7.61,-206.87 11.5,-310.31 0.39,-10.35 1.44,-20.68 1.4,-31.02 -0.13,-40.27 -11.42,-53.82 -50.48,-55.49 -98.24,-4.2 -196.52,-7.78 -294.81,-10.52 -51.14,-1.43 -60.91,7.67 -63.05,58.66 -4.56,108.6 -7.84,217.24 -11.81,325.85 -2.05,56.18 -8.7,62.59 -64.28,61.9 -31.05,-0.38 -62.15,-0.55 -93.13,-2.44 -40.32,-2.46 -51.97,-14.19 -51.28,-54.66 1.07,-62.09 4.36,-124.14 6.42,-186.21 3.03,-91.38 5.8,-182.78 8.68,-274.17 0.35,0.01 0.69,0.03 1.04,0.04z"/>
    <path fill="#3061A8" fill-rule="nonzero" d="M11255.35 99.13c81.86,11.14 167.25,22.59 252.58,34.43 126.29,17.52 252.62,34.86 378.8,53.18 73.93,10.73 78.19,17.51 66.63,89.62 -2.45,15.31 -3.28,30.89 -6.11,46.12 -6.56,35.33 -21.74,46.77 -57.41,41.9 -122.91,-16.81 -245.76,-34.11 -368.61,-51.32 -29,-4.07 -57.86,-9.27 -86.95,-12.61 -29.51,-3.38 -47.13,7.85 -52.25,36.74 -8.42,47.47 -15.09,95.33 -20.28,143.26 -2.93,27.04 10.13,40.72 43.54,46.11 66.32,10.69 132.95,19.59 199.46,29.13 69.93,10.03 139.95,19.41 209.78,30.09 45.9,7.01 54.32,19.8 47.68,66.56 -2.9,20.47 -5.14,41.04 -8.65,61.41 -6.67,38.69 -21.71,49.98 -60.29,44.57 -127.96,-17.98 -255.86,-36.4 -383.8,-54.49 -13.65,-1.93 -27.42,-3.6 -41.17,-3.99 -21.97,-0.64 -37.19,10.64 -40.61,31.93 -10.67,66.34 -20.92,132.79 -29.01,199.47 -3.49,28.82 12.37,43.11 47.87,48.3 73.31,10.7 146.71,20.8 220.09,30.96 80.22,11.1 160.5,21.73 240.68,33.08 43.6,6.17 53.18,18.04 49.34,61.26 -1.98,22.28 -5.31,44.52 -9.39,66.52 -8.02,43.34 -18.58,51.46 -63.65,45.62 -78.6,-10.18 -157.04,-21.61 -235.52,-32.66 -139.91,-19.68 -279.77,-39.66 -419.7,-59.11 -56.11,-7.8 -65.7,-18.43 -57.97,-73.73 35.78,-255.96 72.1,-511.84 108.17,-767.76 6.74,-47.77 11.91,-95.8 20.35,-143.27 6.42,-36.07 17.33,-42.83 56.4,-41.32z"/>
    <path fill="#3061A8" fill-rule="nonzero" d="M8699.82 14646.48c-34.72,-3.71 -74.12,-7.91 -113.52,-12.15 -31.57,-3.4 -48.55,-21.65 -55.95,-51.97 -12.24,-50.18 -26.78,-99.8 -38.67,-150.06 -7.87,-33.25 -27.96,-49.82 -60.91,-53.37 -102.78,-11.07 -205.67,-21.21 -308.23,-34.03 -40.91,-5.12 -65.03,9.89 -81.39,46.4 -19.01,42.42 -40.47,83.77 -61.93,125.03 -21.17,40.72 -33.17,46.32 -78.2,40.95 -35.92,-4.28 -72.02,-7.39 -107.76,-12.84 -43.33,-6.61 -50.05,-19.44 -29.74,-58.68 72.85,-140.75 146.44,-281.13 219.81,-421.63 78.16,-149.65 156.28,-299.32 234.64,-448.88 29.8,-56.88 38.47,-60.92 102.02,-52.74 25.63,3.29 51.36,5.77 77.05,8.54 65.87,7.12 74.1,13.83 91.7,77.47 62.9,227.36 125.63,454.77 188.5,682.15 23.86,86.31 48.26,172.46 71.7,258.88 13.55,50 5.53,59.64 -49.12,56.93zm-310.95 -447.94l0 0c23.02,-0.63 36.21,-14.67 29.23,-43.82 -22.76,-95.1 -47.41,-189.75 -72.33,-284.32 -2.24,-8.49 -13.18,-22.08 -17.47,-21.16 -9.78,2.1 -21.67,9.83 -26.16,18.63 -43.76,85.57 -86.76,171.56 -128.64,258.07 -14,28.93 -4.75,47.38 26.57,51.65 61.2,8.37 122.8,13.8 188.8,20.95z"/>
    <path fill="#3061A8" fill-rule="nonzero" d="M7530.4 1291.6c-33.89,1.66 -47.98,-16.08 -60.74,-34.83 -26.18,-38.46 -51.39,-77.58 -77.57,-116.04 -31.61,-46.46 -38.51,-49.15 -94.18,-36.88 -95.85,21.11 -191.66,42.38 -287.37,64.1 -46.29,10.51 -56.49,22.62 -62.5,69.03 -5.96,46.12 -13.7,92.06 -17.95,138.32 -3.31,36 -19.41,56.74 -55.47,63.73 -37.15,7.2 -73.64,17.8 -110.75,25.27 -40.74,8.21 -53.62,-4.73 -47.36,-47.09 22.68,-153.33 45.58,-306.64 68.88,-459.87 26.15,-171.97 52.94,-343.83 79.23,-515.77 8.32,-54.39 14.87,-62.1 68.44,-74.85 36.85,-8.77 73.91,-16.66 110.63,-25.93 30.75,-7.77 53.75,1.57 71.31,27.52 27.03,39.97 54.55,79.6 81.86,119.37 159.96,232.98 319.22,466.46 480.49,698.53 31.48,45.31 38.78,65.87 -33.14,80.79 -40.43,8.39 -80.73,17.43 -113.81,24.6zm-506.31 -634.88c-12.95,95.31 -25.44,190.71 -36.05,286.31 -4.06,36.6 9.01,47.56 44.21,40.49 55.55,-11.15 110.98,-23.09 166.04,-36.44 41.11,-9.97 47.14,-26.15 24.05,-62.19 -49.12,-76.7 -98.9,-152.96 -148.93,-229.07 -18.2,-27.69 -42.36,-50.31 -49.32,0.9z"/>
    <path fill="#3061A8" fill-rule="nonzero" d="M612.38 6125.94c-1.85,-30.25 -19.01,-56.05 -43.31,-76.41 -34.33,-28.77 -70.97,-54.77 -105.73,-83.05 -40.07,-32.6 -80.81,-64.67 -118.29,-100.11 -49.42,-46.73 -69.04,-106.34 -61.69,-173.83 3.35,-30.78 8.4,-61.56 15.47,-91.68 10.68,-45.45 23.83,-52.3 70.33,-41.5 81.4,18.91 82.12,18.97 75.28,100.58 -3.75,44.86 9.98,82.21 44.04,110.5 30.45,25.29 62.81,48.38 95.08,71.39 45.03,32.12 89.51,63.88 117.75,114.04 15,26.66 27.1,28.19 48.94,7.32 50.97,-48.73 115.11,-68.9 180.45,-84.73 107.16,-25.98 215.17,-48.45 322.85,-72.25 8.4,-1.86 17.03,-3.58 25.57,-3.7 24.17,-0.32 35.59,10.94 30.14,35.5 -11.92,53.8 -25.57,107.28 -40.75,160.25 -8.16,28.5 -33.74,37.12 -60.24,41.94 -62.73,11.42 -125.75,21.5 -188.13,34.58 -58.99,12.36 -117.54,27.02 -175.84,42.33 -30.49,8 -57.59,23.28 -75.85,50.59 -16.18,24.17 -11.89,41.31 14.59,54.13 9.13,4.42 19.69,6.01 29.67,8.59 103.45,26.68 206.95,53.15 310.36,80.01 54.9,14.26 60.63,24.35 46.89,80.02 -6.62,26.76 -13.21,53.54 -20.49,80.13 -13.16,48.06 -25.49,55.29 -74.61,42.83 -202.09,-51.31 -404.12,-102.86 -606.18,-154.35 -88.49,-22.55 -176.98,-45.14 -265.45,-67.81 -11.68,-2.99 -23.73,-5.33 -34.72,-10.05 -21.48,-9.23 -31.81,-24.62 -25.22,-49.36 9.33,-34.96 16.66,-70.45 26.18,-105.35 12.46,-45.63 24.67,-53.04 71.04,-41.52 98.66,24.51 197.08,50.03 295.61,75.1 11.68,2.98 23.3,7.03 35.19,8.18 27.42,2.67 41.57,-11.44 41.07,-42.31z"/>
    <path fill="#3061A8" fill-rule="nonzero" d="M13458.37 981.28c42.34,1.79 67.6,-13.23 88.08,-34.94 31.89,-33.82 61.02,-70.24 92.55,-104.41 36.16,-39.18 72.31,-78.55 110.99,-115.18 42.34,-40.1 94.76,-56.13 152.59,-48.31 39.11,5.28 78.25,12.38 116.31,22.62 36.65,9.88 43.12,25.09 33.59,60.89 -1.78,6.66 -3.55,13.33 -5.6,19.9 -23.12,73.91 -23.34,74.92 -100.85,59.48 -45.48,-9.06 -82.35,5.94 -112.35,37.08 -29.81,30.93 -56.54,64.94 -83.4,98.58 -32.41,40.59 -65.32,79.57 -113.81,103.03 -26.94,13.04 -30.17,27.01 -11.89,48.37 44.57,52.06 62.11,114.9 73.57,179.51 20.17,113.6 37.82,227.64 55.67,341.64 6.62,42.3 -7.18,53.91 -48.85,41.79 -41.33,-12 -81.92,-26.57 -123.28,-38.49 -37.91,-10.92 -54.79,-34.4 -59.95,-73.99 -15.12,-116.08 -33.26,-231.78 -51.4,-347.44 -5.68,-36.21 -18.1,-70.31 -48.76,-94.19 -24.94,-19.42 -43.36,-15.42 -57.59,13.39 -5.28,10.7 -8.09,22.65 -11.74,34.13 -31.25,98.48 -62.18,197.07 -93.74,295.46 -17.95,55.97 -27.62,60.85 -81.8,44.07 -27.97,-8.66 -56.01,-17.12 -83.67,-26.68 -44.48,-15.38 -50.64,-27.44 -36.22,-73.13 66.88,-211.85 134.08,-423.6 201.23,-635.36 24.98,-78.8 49.74,-157.67 75.37,-236.25 16.04,-49.17 26.39,-54.09 75.38,-39.21 28.01,8.51 56.07,16.91 83.79,26.28 48.54,16.41 54.57,27.7 39.67,75.4 -31.84,101.91 -64.4,203.6 -95.98,305.59 -3.91,12.63 -8.84,29.04 -3.97,39.23 5.46,11.42 21.54,17.76 26.06,21.14z"/>
    <path fill="#3061A8" fill-rule="nonzero" d="M6571.1 898.89c-5.29,122.35 -64.14,214.18 -177.83,265.63 -68.75,31.1 -141.51,53.68 -213.21,77.87 -85.17,28.72 -85.54,27.69 -58.86,111.65 24.5,77.1 49.33,154.1 73.49,231.31 14.55,46.48 9.11,57.82 -35.68,73.33 -34.14,11.84 -68.54,23.1 -103.34,32.8 -28.07,7.83 -41.38,0.86 -53.65,-25.72 -5.74,-12.43 -9.31,-25.89 -13.49,-39 -89.3,-280.48 -178.56,-560.96 -267.77,-841.46 -18.52,-58.22 -14.51,-67.17 44.16,-85.4 138.05,-42.89 276.13,-85.72 414.72,-126.81 47.9,-14.2 96.79,-21.29 147.7,-9.4 70.35,16.42 127.21,51.87 169.39,109.88 48,66.02 70,141.25 74.37,225.32zm-403.08 -139.88c-49.99,15.03 -116.11,34.41 -181.51,55.94 -23.26,7.66 -27.32,29.24 -20.21,51.72 20.24,63.96 39.81,128.17 61.55,191.62 11.06,32.27 26.64,39.08 59.52,29.08 41.13,-12.51 82.5,-24.81 122.36,-40.73 31.67,-12.65 63.92,-26.95 91.12,-47.01 49.65,-36.61 63.98,-94.8 43.71,-152.51 -24.06,-68.56 -107.42,-108.92 -176.54,-88.11z"/>
    <path fill="#3061A8" fill-rule="nonzero" d="M1176.02 9912.14c104.49,2.09 180.42,39.49 236.57,110.8 45.75,58.09 85.23,121.12 127.28,182.1 8.81,12.76 16.19,26.51 25.1,39.19 24.95,35.53 35.33,38.21 71.82,15.84 49.97,-30.63 99.27,-62.35 148.86,-93.59 32.08,-20.22 63.82,-41.02 96.38,-60.45 29.52,-17.62 43.06,-16.48 61.59,9.81 24.8,35.18 46.35,72.62 69.47,108.99 12.73,20.01 5.84,36.46 -9.82,50.27 -8.98,7.91 -19.69,13.91 -29.9,20.34 -252.29,159.04 -504.6,318.04 -756.97,476.95 -52.15,32.83 -60.43,31.22 -93.63,-21.54 -66.11,-105.03 -132.01,-210.22 -197.08,-315.91 -18.03,-29.29 -34.6,-59.78 -48.77,-91.11 -48.88,-108.05 -34.77,-210.11 41.4,-299.23 69.84,-81.71 159.44,-130.13 257.7,-132.46zm-118.83 356.51l0 0c0.95,7.75 0.8,16.65 3.22,24.77 24.02,80.78 74.13,147.32 119.96,215.96 11.91,17.84 30.78,19.18 50.25,6.71 58.07,-37.18 117.29,-72.62 174.75,-110.72 29.36,-19.48 31.4,-33.81 11.52,-65.11 -29.56,-46.53 -59.56,-92.96 -92.46,-137.12 -16.13,-21.65 -36.9,-41.81 -59.67,-56.11 -44.66,-28.05 -91.95,-25.38 -137.05,1.83 -44.55,26.88 -69.06,66.13 -70.52,119.79z"/>
    <path fill="#3061A8" fill-rule="nonzero" d="M14187.39 13963.99c-226.24,0.04 -375.32,-188.42 -322.86,-379.38 8.46,-30.78 27.65,-58.71 42.64,-87.57 12.06,-23.2 9.37,-33.73 -13.57,-44.95 -3.07,-1.51 -6.39,-2.64 -9.7,-3.53 -107.34,-28.83 -159.34,-106.47 -171.92,-209.64 -12.34,-101.08 31.58,-182.61 115.33,-238.5 89.63,-59.8 187.54,-96.31 297.91,-72.53 167.39,36.06 246.73,231.48 165.96,359.73 -24.13,38.32 -19.1,48.88 25.75,60.04 122.34,30.45 184.5,115.57 207.03,232.35 22.33,115.77 -11.88,215.58 -103.6,291.58 -74.19,61.48 -161.62,89.98 -232.97,92.4zm-148.28 -338.07l0 0c3.45,49.42 26.3,103.83 77.8,142.66 80.76,60.87 193.99,18.7 214.55,-80.23 12.74,-61.3 -7.12,-116.23 -43.96,-164.51 -39.07,-51.19 -98.47,-67.76 -156.73,-47.17 -59.71,21.1 -92.08,68.83 -91.66,149.25zm108.57 -407.15l0 0c-0.87,-71.09 -56.16,-131.64 -119.6,-131.02 -69.75,0.69 -129.13,58.18 -126.93,122.86 2.32,68.16 56.82,128.2 117.09,128.99 68.34,0.89 130.24,-56.89 129.44,-120.83z"/>
    <path fill="#3061A8" fill-rule="nonzero" d="M4263.92 12275.6c215.82,0 413.29,130.34 475.41,296.49 22.86,61.15 28.43,124.04 15.44,188.19 -7.4,36.54 -21.52,45.42 -58.15,35.93 -35.01,-9.09 -69.96,-18.57 -104.43,-29.45 -36.91,-11.65 -45.26,-22.41 -42.61,-59.32 7.3,-101.61 -38.12,-172.82 -126.22,-217.75 -90.09,-45.94 -176.51,-36.2 -256.84,25.1 -12.28,9.37 -24.23,19.59 -34.61,30.99 -77.97,85.7 -133.78,184.38 -161.39,296.74 -34.97,142.31 44.7,266.86 184.78,295.91 65.92,13.66 123.91,-7.01 173.36,-47.61 68.05,-55.89 66.82,-53.51 127.83,10.98 17.78,18.79 36.7,36.6 53.26,56.4 19.74,23.6 20.08,37.52 -2.51,58.28 -82.8,76.06 -178.2,125.17 -293.51,120.34 -219.22,-9.18 -409.42,-174.58 -449.23,-389.25 -10.78,-58.17 -8.82,-116.9 5.4,-174.55 40.47,-164.11 122.39,-302.86 256.4,-407.73 77.1,-60.34 166.7,-88.19 237.62,-89.69z"/>
    <path fill="#3061A8" fill-rule="nonzero" d="M12903.13 699.29c-12.07,0 -24.14,-0.01 -36.21,0 -46.77,0.03 -55.73,-6.07 -68.04,-52.7 -24.28,-91.95 -86.26,-143.36 -176.64,-160.47 -92.01,-17.42 -170.97,9.22 -230.93,82.96 -46.93,57.72 -68.16,126.83 -83.48,198.22 -17.11,79.72 -29.46,159.82 -9.34,240.64 24.7,99.19 90.79,156.63 189.36,174.92 90.75,16.83 161.43,-20.03 215.58,-91.97 10.34,-13.74 18.83,-28.86 28.81,-42.89 13.99,-19.67 31.89,-25.32 53.82,-13.06 36.11,20.2 72.89,39.3 108.06,61.03 31.91,19.73 33.74,34.09 13.94,68.52 -92.43,160.77 -254.39,232.28 -445.66,196.77 -258.41,-47.98 -416.58,-265.62 -384.28,-527.38 9.97,-80.86 26.95,-159.72 58.51,-234.96 132.46,-315.84 449.28,-359.74 688.68,-229.17 102.75,56.04 164.46,144.43 185.93,260.19 9.07,48.87 -0.56,61.77 -51.26,65.67 -18.91,1.44 -37.89,1.92 -56.84,2.84 0,0.28 0,0.56 -0.01,0.84z"/>
    <path fill="#3061A8" fill-rule="nonzero" d="M572.45 7389.7c62.52,1.7 125.95,-3.64 186.6,-26.34 105.92,-39.66 165.92,-135.84 153.65,-248.09 -8.81,-80.58 -54.88,-135.62 -125.45,-171.72 -15.29,-7.83 -31.71,-13.43 -47.32,-20.7 -21.47,-10 -32.05,-26.23 -24.08,-50.07 13.65,-40.84 26.76,-81.95 42.77,-121.88 11.48,-28.61 28.57,-35.2 57.78,-24.12 156.73,59.48 253.7,168.18 272.88,338.25 13.52,119.9 -3.22,234.33 -73.17,336.06 -73.09,106.3 -175.76,168.51 -301.29,192.56 -120.54,23.08 -240.45,16.72 -358.15,-18.05 -216.29,-63.89 -350.84,-251.2 -330.04,-498.77 7.51,-89.37 34.24,-171.8 91.55,-242.99 44.71,-55.54 101.87,-92.27 168.04,-115.82 37.4,-13.31 54.16,-3.87 63.98,35.35 7.95,31.72 13.78,63.98 20.37,96.03 9.71,47.23 5.79,55.08 -37.68,76.74 -90.76,45.23 -135.22,121.29 -128.18,222.05 6.9,98.94 57.75,168.07 148.08,206.68 69.31,29.65 143.21,36.29 219.66,34.83z"/>
    <path fill="#3061A8" fill-rule="nonzero" d="M19044.26 6821.33c-92.14,24.9 -159.25,79.8 -182.53,177.94 -26.4,111.22 23.59,212.53 128.76,257.98 17.31,7.48 35.76,12.3 53.56,18.7 32.98,11.87 40.96,24.85 33.47,58.35 -7.52,33.62 -16.26,66.98 -25.13,100.27 -12.9,48.48 -26.66,56.2 -73.76,42.6 -174.86,-50.5 -283.4,-183.59 -299.86,-367.66 -22.96,-256.62 116.79,-450.64 367.83,-509.86 105.42,-24.87 211.74,-27.82 318.27,-8.19 218.52,40.24 365.83,208.17 379.3,430.06 7.15,117.59 -13.94,226.57 -91.34,319.81 -37.17,44.77 -83.97,76.45 -136.56,99.82 -31.34,13.93 -47.84,7.31 -59.67,-25.71 -13.35,-37.27 -22.3,-76.11 -35.83,-113.31 -9.51,-26.14 -0.71,-43.15 19.66,-57.49 4.21,-2.96 9.05,-4.99 13.52,-7.6 85.4,-49.73 121.51,-125.6 109.8,-221.71 -12.66,-104.01 -71.13,-175.67 -172.36,-204.05 -115.23,-32.31 -232.91,-20.8 -347.13,10.05z"/>
    <path fill="#3061A8" fill-rule="nonzero" d="M608.22 8756.21c-177.96,-0.86 -314.95,-49.89 -408.15,-180.95 -103.18,-145.1 -130.3,-305.64 -65.59,-475.58 28.7,-75.35 83.38,-129.87 151.93,-170.62 32.8,-19.49 47.37,-15.03 65.2,20.48 14.67,29.23 27.26,59.52 40.46,89.47 21.38,48.5 20.42,54.48 -21.23,86.46 -39.7,30.5 -67.26,68.58 -79.76,117.29 -33.81,131.65 50.74,266.68 183.76,294.69 86.98,18.32 171.43,2.8 255.7,-16.85 60.86,-14.2 119.13,-34.87 169.69,-73.03 94.04,-70.98 120.38,-200.19 61.39,-301.06 -33.43,-57.15 -85.04,-88.78 -148.01,-103.91 -13.39,-3.21 -27.07,-5.21 -40.63,-7.72 -25.96,-4.81 -39.87,-19.41 -36.98,-46.73 4.35,-41.12 7.78,-82.43 14.27,-123.23 5.05,-31.78 23.32,-43.88 55.37,-38.66 158.54,25.79 273.79,106.94 331.76,260.95 72.5,192.64 31.33,390.09 -109.38,518.28 -88.52,80.63 -196.36,119.34 -312.17,138.51 -42.38,7.02 -85.47,9.77 -107.63,12.21z"/>
    <path fill="#3061A8" fill-rule="nonzero" d="M10871.98 579.76c-7.16,153.31 -14.24,306.61 -21.56,459.9 -2.4,49.99 -12.98,59.3 -63.41,57.54 -24.13,-0.85 -48.25,-1.87 -72.38,-2.75 -69.11,-2.56 -74.78,-8.07 -72.04,-75.02 3.52,-86.14 7.73,-172.26 11.57,-258.39 0.53,-12.06 1.54,-24.2 0.76,-36.2 -1.99,-30.32 -13.84,-39.41 -43.79,-33.13 -35.37,7.43 -70.21,17.83 -105.83,23.52 -96.08,15.37 -189.22,2.48 -278.05,-36.77 -105.04,-46.42 -157.95,-129 -163.2,-242.97 -0.47,-10.34 -0.82,-20.72 -0.41,-31.04 4.21,-106.83 8.08,-213.67 13.2,-320.45 2.02,-42.23 16.41,-54.8 58.44,-53.44 34.45,1.12 68.89,3.65 103.26,6.41 37.89,3.04 48.79,14.3 47.5,51.96 -2.42,70.65 -6.44,141.25 -9.26,211.9 -1.37,34.44 -3.39,69.01 -1.86,103.38 3.14,70.46 35.39,113.74 102.42,132.27 78.2,21.63 156.86,18.9 234.24,-6.96 36.61,-12.24 55.32,-35.5 56.77,-76.26 3.86,-108.55 10.89,-216.99 16.21,-325.49 3.05,-62.23 9.73,-69.39 69.89,-67.46 27.56,0.88 55.14,2.53 82.61,4.95 51.37,4.53 57.99,11.47 55.89,64.93 -4.34,110.28 -9.75,220.51 -14.98,330.75 -1.89,39.61 -4.52,79.18 -6.8,118.78 0.27,0.01 0.54,0.03 0.81,0.04z"/>
    <path fill="#3061A8" fill-rule="nonzero" d="M15694.96 13241.48c-48.73,-0.47 -120.78,-32.88 -180.34,-93.36 -30.45,-30.93 -29.82,-45.64 3.75,-70.84 27.55,-20.67 57.16,-38.57 85.19,-58.63 23.34,-16.68 44.21,-14.63 65.53,3.64 11.71,10.05 24.13,20 37.78,26.93 50.09,25.41 99.94,25.48 146.35,-8.47 45.96,-33.63 63.24,-81.28 55.64,-136.28 -7.69,-55.67 -31.95,-105.26 -66.95,-149.21 -71.1,-89.31 -180.29,-89.05 -250.93,0.45 -6.39,8.09 -14.64,16.23 -17.14,25.64 -17.33,65.25 -71.21,83.6 -126.35,101.12 -41.34,13.15 -55.67,7.15 -69.56,-35.22 -28.99,-88.38 -56.6,-177.22 -84.83,-265.86 -16.2,-50.88 -33.09,-101.54 -48.58,-152.64 -11.66,-38.47 -6.91,-52.53 28.86,-72.14 125.44,-68.75 251.37,-136.62 377.53,-204.05 28.65,-15.32 42.56,-11.4 60.14,17.13 18.03,29.3 32.68,60.67 49.47,90.76 10.38,18.6 4.56,33.8 -9.71,45.84 -10.38,8.76 -23.02,15 -35.09,21.56 -60.55,32.95 -121.23,65.66 -181.91,98.39 -85.07,45.9 -85.1,45.88 -53.45,138.7 3.34,9.78 6.02,19.97 10.75,29.06 11.86,22.79 24.62,25.43 44.91,10.01 5.45,-4.15 9.83,-9.69 15.03,-14.19 121.13,-105 291.09,-108.4 410.38,-0.32 115.83,104.93 163.34,237.12 124.4,392.62 -36.79,146.9 -194.35,260.86 -390.87,259.36z"/>
    <path fill="#3061A8" fill-rule="nonzero" d="M14620.38 13391.47c12.22,-93.65 23.27,-179.07 34.54,-264.47 19.37,-146.88 40.44,-293.56 57.42,-440.72 5.54,-48.09 23.47,-81.36 69.04,-98.88 12.81,-4.92 24.7,-12.2 37.09,-18.22 45.22,-21.98 56.76,-18.7 80.41,28.03 77.02,152.18 153.32,304.73 229.92,457.13 5.42,10.77 10.56,21.72 16.61,32.13 18.11,31.15 31.13,35.61 63.01,22.41 76.17,-31.56 76.17,-31.55 113.87,43.5 34.87,69.42 34.87,69.42 -32.91,110.17 -32.77,19.7 -37.58,33.11 -21.42,67.66 15.32,32.77 32.82,64.52 48.06,97.32 15.06,32.42 11.18,46.22 -19.39,63.7 -28.38,16.22 -57.91,30.55 -87.5,44.54 -31.81,15.04 -45.58,11.01 -63.16,-20.02 -15.28,-26.95 -28,-55.34 -42.11,-82.95 -28.53,-55.82 -36.1,-58.44 -90.91,-30.99 -87.82,43.96 -175.45,88.32 -263.35,132.11 -46.57,23.2 -56,19.86 -80.5,-26.79 -12.01,-22.88 -24.53,-45.61 -34.64,-69.34 -7.28,-17.08 -10.95,-35.7 -14.08,-46.32zm207.63 -416.71c-12.64,97.01 -25.13,194.06 -35.88,291.29 -3.76,33.96 12.03,44.4 43.36,29.96 37.38,-17.23 74.07,-36.11 110.3,-55.66 39.67,-21.42 43.59,-33.9 23.99,-73.68 -31.11,-63.12 -62.76,-125.98 -94.86,-188.61 -16.89,-33 -39.66,-58.91 -46.91,-3.3z"/>
    <path fill="#3061A8" fill-rule="nonzero" d="M918.37 9307.08c-17.63,-2.25 -35.28,-6.6 -52.88,-6.43 -141.4,1.41 -282.8,3.69 -424.2,5.67 -62.85,0.88 -66.61,-1.64 -91.14,-61.59 -10.43,-25.52 -20.92,-51.03 -30.86,-76.74 -19.17,-49.6 -11.29,-60.41 43.5,-59.9 20.7,0.19 41.39,0.81 62.07,1.57 249.87,9.07 499.79,17.21 749.59,28.09 56.47,2.46 113.17,11.38 168.62,22.86 76.28,15.78 129.12,62.6 156.76,136.14 10.3,27.4 20.56,54.92 28.67,83.02 8.84,30.62 3.69,47.01 -24.84,59.3 -83.92,36.13 -108.69,63.55 -142.2,-41.53 -13.3,-41.72 -42.71,-73.42 -90.02,-84.86 -55.76,-13.48 -98.64,-2.14 -137.51,43.7 -148.32,174.94 -299.3,347.62 -449.41,521.03 -47.42,54.79 -56.71,53.12 -84.29,-14.13 -13.08,-31.88 -24.67,-64.47 -39.44,-95.55 -14.78,-31.11 -8.69,-55.82 14.77,-79.4 34.05,-34.23 67.1,-69.45 100.53,-104.3 71.63,-74.67 143.33,-149.27 214.75,-224.15 11.41,-11.96 21.49,-25.2 32.18,-37.85 -1.54,-4.98 -3.1,-9.96 -4.65,-14.95z"/>
    <path fill="#3061A8" fill-rule="nonzero" d="M19569.39 8529.12c-22.15,-3.32 -44.45,-5.83 -66.41,-10.14 -35.28,-6.91 -43.84,-17.14 -40.44,-52.6 4.61,-48.02 11.36,-95.83 17.22,-143.72 2.1,-17.11 4.82,-34.15 6.35,-51.3 4.73,-53.15 -0.01,-60.66 -51.49,-68.25 -69.88,-10.3 -140.04,-18.71 -210.11,-27.7 -170.93,-21.95 -341.86,-43.74 -512.77,-65.69 -10.25,-1.32 -20.48,-3.14 -30.54,-5.51 -23.44,-5.52 -36.08,-20.47 -33.35,-44.68 4.62,-41.07 9.11,-82.3 16.85,-122.85 6.38,-33.36 20.81,-42 55.8,-37.51 191.42,24.53 382.79,49.47 574.17,74.36 58.1,7.55 116.11,15.79 174.25,22.95 38.47,4.73 52.83,-6.42 58.51,-46.46 8.94,-63.13 15.77,-126.55 25.14,-189.61 8.01,-53.94 16.87,-59.56 71.46,-53.04 20.54,2.46 41.35,3.46 61.56,7.51 36.98,7.42 45.73,19.33 41.1,57.46 -15.62,128.29 -31.9,256.51 -48.19,384.73 -12.6,99.14 -25.6,198.24 -38.39,297.35 -0.88,6.84 -1.26,13.75 -2.36,20.56 -8.09,50.27 -17.16,57.31 -68.36,54.14z"/>
    <path fill="#3061A8" fill-rule="nonzero" d="M2973.54 3440.96c-8.55,13 -13.34,24.63 -21.74,32.29 -30.56,27.85 -61.64,55.23 -93.85,81.12 -24.23,19.46 -36.37,18.01 -58.6,-2.75 -7.52,-7.02 -13.77,-15.42 -20.51,-23.26 -194.26,-226.18 -388.5,-452.35 -582.74,-678.55 -6.73,-7.84 -13.4,-15.75 -19.88,-23.79 -14.37,-17.84 -12.2,-35 3.24,-50.75 8.41,-8.59 17.65,-16.41 26.79,-24.26 139.89,-120.15 279.82,-240.25 419.77,-360.33 9.15,-7.86 18.46,-15.53 27.78,-23.19 19.61,-16.13 38.44,-13.53 54.78,4.32 20.92,22.88 41.8,45.95 60.69,70.48 18.33,23.8 16.51,35.98 -5.2,58.53 -9.53,9.9 -20.49,18.43 -30.96,27.41 -83.69,71.83 -167.47,143.57 -251.09,215.5 -11.73,10.09 -23.53,20.3 -33.88,31.75 -11.7,12.94 -12.87,28.17 -2.25,42.53 9.2,12.45 19.5,24.11 29.6,35.88 154.89,180.47 309.9,360.84 464.6,541.47 12,14.01 21.93,29.78 33.45,45.6z"/>
    <path fill="#3061A8" fill-rule="nonzero" d="M5281.31 1989.69c-11.17,-8.15 -24.19,-13.96 -31.57,-23.94 -8.98,-12.15 -13.66,-27.63 -19.42,-41.97 -109.22,-271.58 -218.31,-543.2 -327.43,-814.82 -3.85,-9.59 -8.29,-18.99 -11.43,-28.8 -8.94,-27.87 -3.94,-42.04 20.39,-56.14 8.86,-5.14 18.86,-8.37 28.45,-12.21 174.14,-69.97 348.74,-138.86 522.17,-210.54 44.12,-18.23 66.05,-19.44 86.17,35.4 7.72,21.01 15.52,42.04 24.63,62.46 10.77,24.14 0.46,40.05 -19.14,51.74 -11.73,6.99 -24.96,11.55 -37.73,16.69 -103.82,41.8 -207.72,83.42 -311.54,125.22 -67.15,27.04 -69.9,33.26 -43.79,98.2 87.36,217.27 174.8,434.51 262.17,651.78 5.14,12.77 9.25,26 15.07,38.45 8.83,18.88 4.24,37.25 -11.98,45.16 -46.21,22.56 -94.19,41.46 -145.02,63.32z"/>
    <path fill="#3061A8" fill-rule="nonzero" d="M12977 13546.05c8.47,-13.03 16.83,-29.39 28.41,-43.03 32.24,-37.99 67.94,-73.23 98.3,-112.61 33.83,-43.89 58.3,-93.46 67.71,-149.04 5.46,-32.23 23.11,-52.66 55.03,-61.03 21.63,-5.69 42.81,-13.1 64.51,-18.43 27.37,-6.72 41.95,0.52 53.08,26 4.79,10.97 7.5,22.88 10.92,34.43 83.97,283.78 167.91,567.56 251.87,851.35 2.92,9.9 6.67,19.62 8.71,29.7 6.21,30.72 -0.73,44.94 -30.55,55.54 -30.77,10.93 -62.27,19.94 -93.8,28.57 -41.18,11.26 -55.66,3.77 -68.66,-38.72 -29.19,-95.43 -57.07,-191.26 -85.37,-286.96 -28.3,-95.69 -56.46,-191.43 -84.72,-287.14 -2.44,-8.25 -3.93,-17.13 -8.13,-24.42 -6.43,-11.19 -13.39,-27.76 -22.83,-29.86 -8.61,-1.92 -22.64,10.69 -31.13,19.82 -29.28,31.48 -56.56,64.79 -85.88,96.23 -12.81,13.75 -27.96,25.68 -43.36,36.57 -22.77,16.08 -38.74,12.92 -48.53,-12.76 -13.43,-35.24 -22.7,-72.07 -35.58,-114.21z"/>
    <path fill="#3061A8" fill-rule="nonzero" d="M16688.85 11762.62c24.41,30.05 49.87,59.48 71.13,91.58 10.37,15.66 -7.59,36.13 -19.79,46.32 -39.63,33.1 -81.62,63.36 -122.69,94.72 -12.32,9.42 -24.81,18.61 -36.85,28.37 -38.45,31.11 -40.1,40.51 -9.85,80.41 91.56,120.81 183.68,241.21 275.55,361.77 44.46,58.34 44,62.3 -12.99,106.09 -21.85,16.79 -43.71,33.57 -65.97,49.82 -19.93,14.55 -38.68,11.82 -55.08,-6.2 -6.95,-7.62 -13.27,-15.84 -19.54,-24.05 -124.32,-162.98 -248.69,-325.93 -372.8,-489.08 -35.7,-46.92 -34.58,-55.77 12.17,-91.61 101.15,-77.57 202.59,-154.78 304.13,-231.85 10.04,-7.62 21.04,-13.99 29.81,-19.36 7.2,-4.39 17.3,-3.63 22.77,3.07z"/>
    <path fill="#3061A8" fill-rule="nonzero" d="M2467.68 11314.98c0.24,115.35 -90.85,207.69 -205.47,208.31 -116.28,0.63 -211.25,-94.14 -210.25,-209.79 0.98,-112.53 96.65,-207.04 209.13,-206.59 113.66,0.46 206.36,93.83 206.59,208.07z"/>
    <path fill="#3061A8" fill-rule="nonzero" d="M17706.94 11302.41c1,115.4 -89.05,207.72 -204.13,209.27 -116.78,1.57 -211.58,-91.66 -211.45,-207.93 0.13,-112.88 94.62,-207.45 207.51,-207.7 114.04,-0.26 207.09,92.03 208.07,206.36z"/>
    <path fill="#3061A8" fill-rule="nonzero" d="M17301.99 12194.98c-6.71,9.63 -11.79,21.07 -20.36,28.46 -28.58,24.69 -57.73,48.82 -87.97,71.43 -24.46,18.28 -37.97,17.5 -58.14,-5.06 -26.3,-29.4 -50.22,-60.95 -74.77,-91.89 -13.89,-17.52 -13.31,-36.25 3.25,-50.64 32.35,-28.15 66.06,-54.78 99.65,-81.46 16.27,-12.92 33.76,-9.84 46.21,4.54 29.2,33.71 56.79,68.82 84.46,103.82 3.95,4.98 4.73,12.48 7.67,20.8z"/>
   </g>
   <path fill="#3061A8" fill-rule="nonzero" d="M10811.7 1525.49c561.85,40.83 1117.83,125.77 1667.22,250.9 751.07,171.07 1477.13,415.8 2171.7,750.3 573.93,276.39 1114.2,607.36 1608.67,1010.37 503.62,410.46 944.72,878.33 1296.29,1426.95 310.11,483.93 532.97,1004.64 645.47,1569.47 78.53,394.25 101.09,792.13 63.62,1193.48 -31.31,335.36 -100.85,657.89 -205.43,968.78 -247.03,734.32 -683.26,1387.27 -1221.42,1940.53 -985.58,1013.11 -2290.02,1692.89 -3633.15,2098.48 -967.49,292.14 -1993,448.83 -3002.73,476.41 -1050.51,28.69 -2162.37,-85.39 -3179.17,-340.62 -625.17,-156.94 -1232.04,-365.65 -1817.3,-636.78 -494.77,-229.21 -966.04,-498.49 -1407.86,-818.41 -652.13,-472.24 -1237.22,-1057.66 -1662.15,-1744.02 -555.32,-896.98 -794.02,-1911.52 -633,-2957.61 70.81,-459.98 215.3,-895.52 424.11,-1310.21 337.95,-671.17 836.66,-1262.77 1405.76,-1750.17 941.22,-806.1 2100.56,-1365.17 3284.54,-1711.42 1008.95,-295.05 2031.91,-435.68 3082.71,-445.96 370.37,-3.64 739.96,5.53 1112.12,29.53zm1421.69 7796.77c-88.18,-9.77 -165.52,-20.32 -243.21,-26.56 -240.26,-19.29 -480.41,-41.26 -721.04,-54.22 -358.79,-19.32 -717.97,-31.33 -1076.91,-47.98l-57.56 -2.35 -33.24 46.08c-35.86,52.31 -73.84,103.18 -110.27,155.12 -25.26,36.02 -56.26,62.5 -101.24,70.2 -86.16,14.75 -148.99,62.75 -200.43,132.64 -50.67,68.85 -119.59,71.93 -176.26,8 -31.7,-35.76 -58.92,-78.17 -77.84,-122.04 -39.72,-92.14 -100.22,-164.93 -175.73,-226.57 -33.31,-27.2 -64.1,-32.94 -91.46,-51.16 -109.78,5.44 -240.9,7.35 -350.69,12.75 -183.74,9.04 -367.62,16.7 -551.03,30.49 -284.71,21.4 -573.13,45.26 -856.69,78.77 141.15,621.98 347.11,1214.06 648.14,1779 1181.85,-207.06 2364.44,-222.18 3550.94,-45.92 276.12,-520.53 467.08,-1066.4 602.39,-1639.97 7.56,-32.05 14.93,-64.14 22.13,-96.28zm5709.69 -1902.15l0 0c10.94,-994.49 -331.54,-1858.33 -925.96,-2640.43 -609.62,192.17 -1251.39,361.66 -1868.61,506.66 3.13,18.32 68.63,239.2 78.37,269.97 144.25,455.97 232.31,948.4 259.44,1426.62 8.35,147.03 3.5,291.49 9.83,437.18 814.11,0 1628.46,0 2446.93,0zm-16145.48 225.01c80.26,608.75 190.06,1061.02 489.83,1615.02 137.43,254.01 351.33,592.92 551,800.99 543.16,-165.42 1128.49,-330.08 1710.83,-465.14 26.06,-6.04 51.65,-14.14 83.39,-22.92 -121.47,-311.72 -214.59,-624.93 -283.39,-945.45 -69.28,-322.75 -106.93,-649.63 -127.79,-982.5l-2423.87 0zm13716.34 2036.16l0 0c461.14,128.43 918.61,255.83 1382.59,385.05 379.9,-439.01 665.11,-957.19 851.01,-1506.29 105.76,-312.4 178.96,-638.79 178.96,-915.56 -813.3,0 -1622.74,0 -2434.41,0 -0.72,15.46 -1.26,27.32 -2.08,45.14 78.76,0 263.24,-11.38 330.84,6.47 67.63,17.9 88.84,60.33 60.97,124.27 -16.03,36.77 -35.43,72.06 -52.58,108.36 -24.69,52.2 -23.14,101.86 14.74,148.34 40.69,49.9 73.3,90.1 19.59,141.66 -20.95,20.1 -46.3,36.57 -71.88,50.67 -34.24,18.87 -67.48,11.76 -102.38,-6 -78.27,-39.81 -158.54,-75.72 -236.53,-112.52 -7.27,10.31 -11.17,13.34 -11.6,16.8 -32.11,258.48 -83.98,512.94 -151.68,764.41 -6.72,24.94 -4.34,55.3 3.08,80.41 29.29,99.11 91.92,211.9 135.83,307.05 18.95,41.09 29.63,84.23 18.93,129.43 -10.35,43.69 2.75,78.95 33.47,109.52 34.74,34.56 58.73,72.39 33.13,122.79zm-13723.85 -2261.35c813.5,0 1616.33,0 2421.91,0 8.77,-224.65 17.39,-445.34 26.16,-670.19 -21.19,-2.44 -39.96,-3.19 -58.09,-6.97 -51.55,-10.73 -104.3,-18.35 -153.92,-35.09 -104.9,-35.4 -165.88,-107.47 -155.57,-224.37 6.49,-73.67 -18.55,-136.74 -64.39,-193.46 -25.21,-31.19 -51.68,-62.36 -70.82,-97.25 -41.07,-74.86 -53.57,-150.27 6.32,-224.62 35.29,-43.81 51.62,-95.91 53.19,-153.12 1.79,-65.45 9,-130.8 9.5,-196.22 0.28,-35.44 -5.53,-71.72 -14.33,-106.15 -5.21,-20.38 -21.61,-37.9 -40.79,-69.63 -14.89,38.9 -26.28,63.07 -33.48,88.42 -38.06,134.17 -75.59,268.49 -112.18,403.06 -15.05,55.3 -42.09,101.26 -91.71,131.77 -28.33,17.43 -59.27,26.31 -90.25,9.93 -32.04,-16.93 -38.51,-48.28 -36.42,-81.82 0.93,-14.75 1.32,-29.77 4.51,-44.1 42.34,-189.59 80.48,-380.3 129.52,-568.16 30.39,-116.42 13.75,-229.97 11.2,-347.62 -274.51,-81.73 -545.29,-162.35 -820.51,-244.29 -399.1,524.87 -682.55,1089.09 -821.91,1706.13 -68.49,303.31 -100.34,612.92 -97.94,923.75zm5327.31 -1670.93l0 0c-688.66,-80.17 -1360.61,-193.97 -2025.14,-332.59 -44.85,61.54 -59.05,122.03 -56.25,190.85 3,73.51 -3.98,147.53 -8.81,221.18 -1.63,24.81 -8.37,50.33 -44.81,60.57 -18.26,-23.09 -36.97,-46.76 -59.07,-74.71 -8.92,14.35 -14.89,24.82 -21.69,34.71 -26.06,37.91 -51.23,38.31 -78.75,1.77 -15.23,-20.23 -19.55,-41.84 -9.13,-65.45 8.34,-18.91 17.06,-37.64 27.27,-60.1 -48.27,-42.99 -99.74,-63.16 -163.52,-61.42 -114.67,377.89 -185.8,758.51 -220.77,1146.75 8.91,3.2 14.56,6.57 20.47,7.14 129.58,12.46 255.74,34.48 358.1,124.92 1.56,1.38 3.64,2.15 5.37,3.36 98.27,69.34 175.12,80.24 236.01,-65.63 32.43,-77.68 69,-97.69 155.09,-89.62 75.62,7.08 151.12,17.7 225.86,31.26 88.99,16.14 97.6,32.39 76.59,119.98 -1.48,6.17 -3.31,12.29 -4.34,18.53 -5.31,32.48 2.77,43.48 36.18,40.32 35.63,-3.38 72.6,-6.5 105.86,-18.43 97.39,-34.94 195.06,-30.1 294.12,-12.18 84.13,15.21 112.13,46.63 113.31,132.38 0.82,59.23 -1.62,118.55 0.88,177.69 4.37,103.39 47.64,143.53 151.71,143.65 226.37,0.24 452.73,0.14 679.1,-0.09 20.55,-0.02 41.1,-1.93 69.49,-3.35 -2.34,-560.38 42.9,-1113.07 136.87,-1671.49zm4719.67 5342.74c560.87,90.07 1138.14,232.69 1691.07,415.13 199.76,-181.74 400.92,-413.37 564.8,-627.65 67.78,-88.63 132.82,-179.35 199.71,-269.95 -61.66,-32.76 -62.17,-33.25 -70.01,-99.15 -2.25,-18.88 -2.5,-38.01 -4.87,-56.88 -10.34,-81.96 -41.94,-154.47 -97.27,-216.3 -19.68,-22 -41.34,-32.81 -72.84,-25.04 -50.75,12.52 -61.32,9 -70.46,-40.5 -10.64,-57.65 -11.93,-117.15 -15.44,-175.95 -2.14,-35.77 3.56,-72.42 -1.94,-107.47 -12.61,-80.37 -76.64,-115.66 -151.82,-87.47 -9.87,3.69 -19.78,7.62 -28.97,12.69 -72.11,39.8 -144.8,78.62 -215.69,120.48 -33.63,19.86 -66.76,33.6 -106.73,33.64 -67.61,0.07 -135.27,6.19 -202.83,4.96 -50.32,-0.93 -101.22,-5.81 -150.57,-15.5 -64.07,-12.59 -97.05,-58.84 -102.78,-121.38 -9.5,-103.68 -10.57,-206.6 38.25,-303.93 15.37,-30.63 21.65,-65.82 34,-105 -212.6,-27.95 -414.87,-54.55 -621.47,-81.71 -136.48,607.68 -331.95,1188.57 -614.14,1746.98zm2493.32 -5625.94c7.41,51.26 49.92,136.56 69.05,188.51 25.57,69.43 9.28,106.68 -61.19,95.16 -4.1,-0.66 -8.49,-0.2 -12.67,0.36 -37.8,5.01 -51.42,24.1 -40.23,61.57 13.1,43.84 50.37,94.19 35.59,142.61 -16.06,52.64 -15.85,103.42 -7.4,156.53 5.49,34.57 7.1,94.57 -42.84,64.76 -31.53,-18.81 -60.45,-14.53 -87.74,7.51 -54.53,44.04 -114.65,34.33 -175.03,18.1 -28.53,-7.67 -55.82,-20.4 -84.58,-26.71 -36.45,-8 -57.1,7.92 -61.2,44.62 -5.97,53.42 9.29,131.98 9.92,189.78 0.53,47.73 -15.34,64.05 -63.05,70.18 -52.21,6.71 -147.41,-10.54 -201.69,-16.91 -34.44,-4.04 -62.02,7.64 -83.71,34.62 -19.87,24.72 -39.37,49.85 -60.71,73.28 -36.56,40.15 -67.38,42.94 -99.84,-0.19 -44.63,-59.31 -63.22,-139.99 -77.06,-211.55 -10.15,-52.45 -37.67,-93.46 -78.81,-126.39 -29.73,-23.78 -63.9,-44.06 -87.61,-72.87 -50,-60.76 -112.97,-101.61 -182.69,-133.43 -44.62,-20.35 -68.8,-54.28 -78.93,-100.29 -4.54,-20.61 -7.02,-41.7 -12.14,-62.15 -12.13,-48.49 -25.29,-96.72 -38.07,-145.23 -39.58,1.55 -64.92,8.35 -82.06,39.01 -39.73,71.08 -92.05,130.81 -166.87,164.27 20.37,169.9 43.48,335.22 59.17,501.23 15.71,166.23 27.08,333.02 34.7,499.82 7.58,165.72 8.14,331.77 11.74,496.26 106,12.3 821.38,7.87 874.67,-6.04 -13.94,-20.44 -25.31,-40.11 -39.57,-57.4 -66.29,-80.37 -144.15,-158.8 -205.39,-241.7 -50.3,-68.1 -45.42,-121.1 11.96,-181.43 32.06,-33.7 64.87,-66.73 98.25,-99.11 28.23,-27.38 58.9,-48.21 101.98,-33.3 41.42,14.34 48.73,48.05 53.5,85.17 7.8,60.78 15.98,121.56 26.05,181.99 10.6,63.53 39.15,117.89 99.26,146.56 70.97,33.86 136.61,73.81 196.7,125.26 40.48,34.66 70.99,30.99 104.47,-10.18 51.23,-63.02 114.26,-103.63 190.31,-130.64 96.6,-34.32 164.4,-101.14 199.8,-199.23 9.29,-25.75 21.53,-50.63 34.38,-74.87 33.07,-62.39 61.56,-66.3 110.74,-16.39 53.83,54.62 69.48,125.31 76.67,197.09 4.58,45.69 2.68,93.32 -5.12,138.56 -6.77,39.24 -31.69,45.31 -65.54,24.32 -13.35,-8.28 -26.58,-16.76 -46.58,-29.39 -10.17,65.71 -19.01,122.79 -28.38,183.33l822.7 0c3.27,-274.38 -7.07,-513.83 -40.91,-784.44 -50.36,-402.75 -130.24,-819.3 -192.54,-903.7 -32.3,52.16 -34.09,107.7 -19.13,164.72 16.63,63.38 33.25,126.81 52.2,189.52 14.16,46.82 10.81,69.38 -9.12,105.74 -42.66,77.78 -58.34,64.21 -98.74,-12.85 -16.69,-31.85 -32.76,-62.94 -48.07,-94.39 -25.44,-52.24 -62.21,-88.76 -118.79,-106.49 -32.03,-10.04 -63.93,-23.29 -92.65,-40.51 -66.66,-39.96 -76.41,-75.81 -33.65,-141.12 49.6,-75.78 133.98,-144.27 150.59,-236.66 11.88,-66.07 7.97,-130.37 -4,-195.43 -161.61,33.51 -328.5,67.03 -490.1,100.55zm-11341.89 4777.07c245.71,289.1 589.91,584.6 891.82,813.86 447.6,339.9 944.86,631.07 1454.75,866.99 225.62,-97.41 455.64,-184.95 684.36,-274.83 -560.02,-538.78 -993.1,-1168.43 -1304.21,-1876.93 -582.77,134.89 -1165.67,294.88 -1726.72,470.91zm2384.61 -607.91l0 0c-145.77,31.28 -290.48,62.33 -441.59,94.75 319.96,706.46 753.45,1319.38 1319.22,1839.2 518.91,-176.66 1043.11,-316.25 1582.04,-423.51 -59.7,-128.04 -124.56,-254.33 -181.24,-383.48 -192.66,-438.96 -338.4,-893.39 -444.03,-1360.85l-11.47 -55.53c-250.62,33.44 -502.62,67.42 -746.75,99.99 -5.35,18.16 -10.9,29.86 -12.03,41.98 -5.68,61.07 -10.13,122.25 -15.15,183.37 -5.71,69.62 -23.1,131.75 -88.49,172.42 -74.35,46.24 -110.21,118.78 -130.36,202.23 -10.26,42.53 -25.55,85.2 -46.46,123.49 -30.04,55.01 -27.92,68.04 33.18,91.37 79.77,30.46 99.05,79.07 57.73,153.79 -17.29,31.25 -40.51,59.24 -61.11,88.65 -34.3,48.95 -44.99,101.75 -14.74,155.08 32.2,56.76 70.62,109.95 104.02,166.08 20.22,33.98 44.77,68.9 52,106.37 13.9,72.07 50.41,123.78 110.36,162.17 126.18,80.87 136.26,101.18 159.18,253.94 6.2,41.35 -21.33,62.39 -63.62,56.23 -56.34,-8.18 -163.27,-72.43 -207.5,-105.7 -133.47,-100.38 -263.01,-205.97 -395.61,-307.53 -54.62,-41.83 -87.89,-95.41 -108.27,-159.66 -19.82,-62.46 -41.72,-124.25 -63.07,-186.21 -13.47,-39.1 -34.01,-70.58 -74.45,-89.71 -18.06,-8.54 -35.12,-31.13 -41.26,-50.88 -28.18,-90.58 -60.71,-180.24 -61.01,-277.55 -0.18,-59.18 -22.56,-112.24 -67.22,-152.56 -51.17,-46.19 -86.33,-101.81 -117.11,-163.37 -41.6,-83.22 -67.72,-164.23 -23.37,-253.82 1.51,-3.07 -0.55,-7.91 -1.82,-20.75zm6120.47 1620.32c-230.29,-31.79 -470.41,-55.72 -703.09,-74.09 -458.9,-36.27 -918.64,-42.05 -1378.56,-17.3 -414.04,22.28 -833.08,67.95 -1241.78,138.22 216.97,361.95 466.5,695.36 780.18,979.68 102.31,-53.26 201.91,-98.57 309.26,-141.73 74.78,-30.07 151.11,-34.1 229.29,-8.97 142.95,45.96 330.24,77.53 478.51,91.7 180.18,14.31 303.75,-58.88 421.74,-151.97 148.84,-117.43 232.82,-124.76 336.51,-14.07 28.27,30.17 60.72,52.85 109.04,74.59 162.95,-125.6 537.14,-623.17 658.9,-876.06zm1172.84 -3611.76c-20.46,254.11 -34.83,502.75 -61.98,750 -27.08,246.66 -66.97,491.92 -101.91,742.58 160.66,19.77 319.02,39.26 464.04,57.11 50.01,-61.16 88.79,-113.82 132.94,-161.52 100.79,-108.91 227.05,-175.59 371.11,-206.36 77.74,-16.61 148.37,-46.69 216.12,-86.82 114.54,-67.86 237.27,-124.6 342.67,-204.36 89.04,-67.37 170.63,-102.9 277.83,-59.11 37.4,15.28 67.31,-1.46 96.08,-29.5 69.57,-67.85 131.52,-118.44 231.32,-128.29 54.17,-5.34 81.68,20.45 93.38,73.19 15.72,70.85 34.05,204.38 90.55,250.6 95.26,-31.23 230.49,-110.18 328.32,-154.93 26.59,-12.17 32.07,-30.69 35.47,-53.97 19.24,-131.78 38.9,-263.5 57.15,-395.41 7.73,-55.93 5.22,-58.97 -46.8,-80.14 -29.13,-11.85 -82.75,-18.2 -105.99,-37.46 -65.43,-54.21 -108.38,-123.71 -128.68,-206.25 -5.33,-21.69 -5.26,-44.71 -7.91,-69.36 -761.23,0 -1522.47,0 -2283.71,0zm4073.94 2603.89c-330.11,-100.74 -669.04,-194.51 -998.66,-279.06 -134.08,-34.41 -268.63,-67.15 -402.61,-102.01 -31.77,-8.26 -54.34,-2.9 -80.39,18.4 -48.2,39.4 -70.78,89.25 -73.35,148.66 -2.36,54.29 -25.75,93.17 -74.34,115.75 -41.88,19.47 -83.51,41.72 -127.71,53.49 -78.81,21 -183.13,50.6 -250.6,95.64l-53.76 93.96c-296.93,507.99 -625.6,918.92 -915.39,1189.82 247.04,82.94 506.56,181.38 755.12,283 557.2,-255.96 1155,-641.43 1621.14,-1037.53 209.79,-178.27 408.9,-370.41 600.55,-580.12zm-6213.88 -2602.77l0 0c13.92,114.1 26.37,218.69 39.57,323.19 6.34,50.23 19.71,100.31 19.38,150.4 -0.26,38.54 -6.1,85.59 -28.48,113.74 -54.26,68.27 -84.14,145.77 -111.96,225.64 -25.51,73.24 -72.72,117.67 -154.65,116.4 -10.4,-0.16 -20.88,3 -31.28,4.87 -32.78,5.9 -50.85,23.62 -56.84,58.27 -14.12,81.67 7.68,127.87 68.65,151.4 57.17,22.05 78,67.22 75.54,126 -0.87,20.73 -13.38,42.86 -21.31,61.16 31.55,1.66 63.45,4.19 95.17,5.78 298.2,15.04 594.32,27.77 889.96,47.28 321.77,21.25 643.02,50.46 963.27,76.09 74.53,-224.4 159.26,-1341.98 166.51,-1460.23 -629.34,0 -1269.44,0.01 -1913.53,0.01zm-1756.24 -3865.7c-27.75,-3.95 -39.86,-5.67 -51.96,-7.4 -232.92,-33.25 -466.76,-64.18 -698.91,-102.09l-55.81 110.69c-249.04,507.36 -427.18,1039.38 -550.94,1590.17 -13.71,61.05 -25.6,122.51 -39.78,190.72 297.4,31.49 648.27,63.91 947.22,88.17 44.66,-40.41 76.98,-68.9 119.38,-97.89 85.81,-58.67 183.86,-69.04 293.83,-30.74 95.68,33.31 193.96,59.08 290.25,90.75 41.89,13.78 83.6,30.55 121.74,52.35 24.05,13.75 44.73,17.17 71.29,14.08 80.13,-9.33 160.16,-7.9 239.82,8.27 106.56,21.64 213.97,6.85 326.4,10.6 -6.74,-16.6 -10.71,-26.38 -15.03,-37 10.21,-7.63 18.51,-14.05 27.03,-20.16 10.3,-7.41 21.54,-13.69 31.05,-21.98 31.08,-27.07 45.2,-34.32 20.15,-79.6 -18.68,-33.76 -20.36,-62.92 7.79,-97.53 30.62,-37.63 17.64,-64.49 -29.09,-81 -33.85,-11.97 -68.5,-21.71 -102.53,-33.23 -50.66,-17.13 -50.06,-17.43 -50.68,-70.71 -0.18,-15.4 -4.12,-30.75 -6.81,-49.33 -64.37,23.72 -122.32,42.74 -166.92,88.09 -10.21,10.39 -23.26,18.44 -36.02,25.81 -37.66,21.78 -66.09,17.47 -84.38,-21.45 -29.94,-63.7 -72.98,-123.56 -60.14,-202.07 3.99,-24.41 -8.45,-53.41 -19.31,-77.65 -6.43,-14.33 -24.51,-23.44 -41.46,-38.57 -10.77,19.4 -19.78,29.4 -22.1,40.77 -22.24,108.67 -27.31,218.42 -8.73,327.76 4.12,24.26 25.96,46.14 41.82,67.51 7.25,9.75 20.83,14.54 29.73,23.4 26.7,26.6 18.32,54.95 -18.62,65.35 -63,17.75 -116.15,-14.73 -130.29,-79.82 -3.59,-16.5 -4.65,-33.81 -10.17,-49.59 -11.02,-31.52 -21.9,-63.52 -37.41,-92.91 -13.64,-25.84 -33.07,-48.72 -50.74,-72.31 -28.92,-38.59 -59.9,-74.86 -114.48,-91.24 -11.48,31.47 -21.22,58.94 -31.5,86.21 -37.51,99.59 -72.88,123.63 -177.36,108.53 -51.98,-7.51 -95,4.01 -138.16,30.82 -35.77,22.22 -72.97,44.15 -112.42,58.04 -72.49,25.51 -132.6,-25.87 -123.99,-102.38 2.12,-18.8 8.17,-37.13 11.4,-55.85 2.51,-14.48 7.49,-30.15 4.37,-43.68 -14.14,-61.49 -30.49,-122.48 -46.6,-183.51 -9.17,-34.75 -21.67,-68.76 -28.73,-103.89 -19.8,-98.58 13.77,-156.98 111.75,-178.16 122.37,-26.46 246.23,-46.79 375.22,-46.87 2.13,-20.44 4.46,-41.27 6.43,-62.14 2.18,-23.12 2.86,-46.44 6.22,-69.37 10.31,-70.17 24.4,-87.14 94.43,-98.09 56.27,-8.81 113.53,-11.61 170.43,-16.07 33.37,-2.62 66.81,-3.54 94.2,-23.48 -6.96,-76.17 -0.25,-85.98 69.79,-105.37 12.22,-3.39 24.57,-6.41 37.02,-8.77 93.45,-17.71 186.94,-35.23 280.42,-52.76 183.96,-34.49 294.14,-229.55 229.29,-409.72 -82.56,-10.77 -141.45,24.96 -182.23,95.27 -14.84,25.58 -25.71,53.63 -41.96,78.19 -41.3,62.45 -91.01,68.99 -148.88,21.71 -39.21,-32.03 -65.78,-63.61 -123.35,-44.55 -32.08,10.62 -64.68,20.02 -97.56,27.8 -38.87,9.2 -55.74,-3.12 -58.96,-43.18 -4.46,-55.41 19.14,-113.31 34.33,-166.26 -61.01,-4.23 -118.12,-8.19 -176.26,-12.21 19.69,141.95 6.39,242.05 -74.47,369.29 -67.93,106.88 -274.55,118.55 -386.71,109.51 -64.52,-5.2 -136.98,-26.37 -66.05,-90.82 24.95,-22.67 51.72,-43.84 79.88,-62.35 33.32,-21.9 55.7,-48.89 66.48,-88.39 14.08,-51.61 42.2,-95.28 80.6,-134.22 15.4,-15.62 86.23,-110.87 97.74,-123.5zm-1526.21 -270.02l0 0c-134.49,-49.62 -257.53,-77.78 -295.37,-69.27 -26.5,89.9 -52.5,108.65 -145.62,100.65 -44.22,-3.79 -88.01,-14.3 -132.22,-16.07 -41.81,-1.67 -85.33,-1.77 -125.56,7.96 -65.93,15.95 -110.5,61.47 -131.31,126.2 -14.41,44.79 11.12,82.17 57.91,85.16 24.7,1.57 50.07,-5.18 74.97,-9.21 35.38,-5.74 70.39,-14.61 105.95,-18.17 46.71,-4.68 83.08,15.94 104.23,57.54 21.67,42.63 11.82,83.82 -19.46,117.24 -21.32,22.78 -47.28,41.93 -73.41,59.35 -47.79,31.84 -94.07,64.56 -127.18,112.93 -20.82,30.42 -27.2,59.26 -6.52,93.66 18.43,30.66 33.12,63.93 46.29,97.29 22.21,56.3 12.19,87.13 -42.83,105.33 -59.49,19.67 -105.09,53.79 -139.35,104.09 -39.56,58.07 -94.33,79.82 -162.91,79.02 -65.55,-0.77 -67.52,4.47 -78.13,71.6 -7.91,49.98 -14.51,101.02 -30.35,148.71 -27.56,82.92 -93.19,97.51 -156.73,38.71 -17.04,-15.76 -31.58,-34.21 -48.2,-50.46 -66.58,-65.13 -108.1,-70.58 -193.42,-34.91 -50.18,20.99 -104.14,32.81 -154.73,52.95 -30.62,12.19 -62.42,27.83 -85.75,50.2 -26.9,25.8 -47.63,59.24 -66.54,91.97 -58.81,101.82 -97.91,214.8 -187.04,312.29 643.6,133.79 1279.83,236.15 1924.43,312.08 67.67,-326.84 148.11,-641.98 249.92,-951.51 101.38,-308.22 224.74,-607.65 370.44,-912.82 -131.32,56.3 -250.8,98.77 -333.65,204.38 -16.2,20.65 -50.25,38.6 -75.77,38.22 -49.69,-0.75 -99.79,-12.92 -148.5,-25.21 -26.8,-6.75 -39.6,-25.89 -46.68,-58.69 -25.4,-117.7 -26.93,-227.35 73.09,-321.21zm7562.47 1016.41l0 0c86.75,186.94 173.53,373.97 261.46,563.47 603.72,-141.52 1200.33,-301.74 1792.97,-486.67 -91.6,-145.27 -569.45,-620.54 -657.3,-655.86 -5.27,63.35 -6.91,126.85 -17.12,188.95 -5.94,36.17 -19.85,74.05 -40.52,104.04 -26.23,38.06 -70.68,38.92 -105.01,7.17 -19.82,-18.33 -38.53,-40.5 -50.12,-64.61 -35.67,-74.25 -67.15,-150.5 -101.26,-225.52 -28.86,-63.44 -55.6,-128.24 -89.78,-188.76 -30.67,-54.29 -58.53,-59.93 -117.54,-38.64 -29.84,10.77 -58.84,24.22 -89.21,33.12 -58.85,17.23 -97.29,-0.27 -126.12,-54.84 -5.91,-11.19 -12.32,-22.73 -15.06,-34.89 -22.39,-99.44 -91.2,-142.42 -185.89,-153.94 -91.05,-11.07 -168.06,-52.57 -241.37,-105.28 -77.9,-56.01 -126.68,-128.65 -144.24,-222.98 -8.9,-47.8 -20.36,-95.12 -29.83,-142.83 -6.04,-30.38 -17.35,-53.36 -49.04,-67.63 -51.96,-23.4 -101.89,-51.56 -151.52,-79.75 -32.16,-18.27 -61.36,-18.01 -95.98,-4.38 -179.05,70.51 -359.06,138.64 -538.65,207.8 -7.32,2.82 -13.83,7.73 -30.72,17.38 37.57,16.83 66.93,31.69 97.51,43.38 124.95,47.79 254.96,76.67 386.29,99.65 99.14,17.35 184.1,61.56 255.62,131.22 19.4,18.89 37.33,41.22 49.44,65.25 21.74,43.1 6.23,79.14 -38.32,97.57 -13.46,5.57 -28.35,8.43 -42.87,10.57 -73.44,10.8 -146.7,17.95 -220.89,2.85 -29.78,-6.06 -63.32,-12.22 -89.39,25.67 14.14,26.69 26.66,55.57 43.75,81.44 27.78,42.04 34.87,86.88 19.57,133.31 -38.87,117.9 -14.72,107.56 44.17,179.06 5.38,6.54 11.02,12.86 16.39,19.4 41.09,50.06 92.66,78.73 158.6,80.83 27.41,0.87 56.1,1.43 81.67,9.84 29.04,9.55 63.85,21.18 80.84,43.55 32.64,42.96 62.38,91.58 78.76,142.53 19.85,61.74 25.49,128.19 35.25,192.91 2.34,15.46 -3.36,32.13 -6.24,55.21 -46.01,-3.44 -87.13,-6.51 -128.3,-9.59zm-5166.07 -1206.6c19.4,19.97 24.21,45.68 31.41,69.03 9.62,31.22 26.3,45.79 59.74,42.65 32.49,-3.04 39.1,-22.97 44.33,-51.03 14.58,-78.15 92.05,-151.5 171.99,-154.13 77.82,-2.57 157.09,0.04 233.79,12.39 79.53,12.81 145.51,56.97 188.17,128.41 25.71,43.06 26.62,87.9 1.02,132.36 -23.49,40.8 -60.8,39.53 -100.13,34.69 -14.61,-1.8 -29.63,-1.46 -44.38,-0.64 -59.29,3.33 -97.45,37.42 -133.59,89.95 20.75,1.28 32.96,2.22 45.19,2.77 167.99,7.46 331.79,-27.45 496.88,-49.34 10.41,-1.38 20.53,-5.01 30.77,-7.63 154.24,-39.52 273.22,-191.31 274.9,-350.73 0.39,-36.11 -16.93,-52.45 -51.57,-42.94 -56.73,15.59 -106.42,42.14 -129.57,101.68 -8.43,21.67 -16.62,43.53 -26.81,64.38 -37.2,76.06 -131.92,124.72 -209.89,106.59 2.59,-44.38 28,-78.56 52.84,-112.03 44.13,-59.47 88.76,-118.67 135.87,-175.77 34.04,-41.26 43.41,-85.68 31.1,-136.27 -3.99,-16.43 -8.31,-32.79 -12.06,-49.27 -19.79,-87.1 47.24,-158.07 134.85,-137.47 48.86,11.49 96.25,31.96 142.01,53.31 89.2,41.62 88.53,43.05 67.77,140.76 -8.62,40.62 -4.01,52.46 34.81,69.55 60.87,26.81 126.46,31.49 198.86,43.91 -10.76,-17.11 -16,-26.11 -21.87,-34.68 -224.18,-326.88 -486.28,-618.55 -802.47,-859.31 -187.82,-143.02 -390.85,-259.75 -611.06,-346.22 -35.81,-14.06 -67.35,-16.79 -103.02,0.23 -64.87,30.93 -132.63,55.88 -197,87.75 -119.12,58.99 -233.4,126.41 -338.81,210.11 68.65,-16.22 253.75,-87.95 119.99,64.13 -34.92,39.69 -73.53,76.24 -107.26,116.88 -29.56,35.63 -59.51,72.54 -80.35,113.44 -29.21,57.36 3.16,100.34 67.1,107.61 81.73,9.29 162.89,23.94 243.95,38.26 116.34,20.55 12.28,62.33 -33.64,83.96 -82.14,38.69 -167.33,71.83 -246.08,116.42 -84.34,47.74 -138.02,56.52 -223.58,85.31 -75.84,25.5 -89.89,49.94 -72.97,127.99 9.85,45.46 22.94,90.26 31.61,135.92 12.24,64.51 6.32,72.97 -55.5,96.73 -42.5,16.33 -46.36,25.26 -33.65,71.79 17.6,64.46 -3.56,52.98 -63.57,45.4 -64.99,-8.2 -129.89,-17.11 -194.77,-26.13 -112.88,-15.71 -135.24,66.97 -261.06,54.37 -46.16,-4.62 -92.97,-2.67 -139.51,-3.52 -25.55,-0.47 -45.65,5.61 -45.79,39.51 169.96,36.64 378.98,60.11 553.1,80.37 180.63,21.01 356.95,41.49 549.79,54.94 18.8,-6.87 52.43,-11.78 64.7,-40.86 12.07,-28.63 18.24,-60.06 24.45,-90.78 10.99,-54.39 31.07,-71.79 86.75,-70.89 66.6,1.02 96.17,17.24 144.26,-51.75 32.3,-46.29 36.74,-74.59 77.96,-32.16zm-842.44 4327.49l0 0c-129.04,-13.37 -1545.06,-8.05 -1592.49,5.01 -22.3,204.37 96.32,1255.26 163.22,1449.06 558.18,-39.29 1131.83,-81.2 1692.77,-120.69 -5.68,-75.75 -6.94,-167.05 -33.2,-251.58 -18.18,-58.55 -41,-116.47 -51.42,-176.47 -19.28,-110.9 -71.38,-202.64 -147.11,-282.58 -55.64,-58.74 -83.03,-125.06 -72.21,-207.36 3.71,-28.27 1.61,-60.06 -7.72,-86.8 -36.42,-104.36 -33.24,-202.7 31.84,-295.42 5.68,-8.08 8.9,-17.87 16.32,-33.17zm4595.38 -4558.25l0 0c-2.26,-10.14 -1.85,-15.2 -4.18,-17.56 -11.83,-12.04 -23.98,-23.84 -36.73,-34.89 -552.44,-478.88 -1175.12,-832.28 -1874.93,-1047.06 -149.43,-45.86 -299.04,-93.05 -456.02,-106.46 -172.79,-14.76 -345.69,-28.26 -518.67,-40.52 -81.25,-5.75 -170.72,-7.98 -266.57,-12.05 23.22,12.35 34.58,20.61 42.86,25.34 412.36,235.68 751.1,554.57 1036.58,930.43 118.75,156.34 222.33,324.19 333.38,486.41 10.15,14.83 23.4,36.87 37.03,38.32 46.99,4.98 81.39,30.37 104.48,65.23 51.27,77.38 115.04,83.5 201.41,66.48 171.44,-33.78 338.13,-74.27 483.53,-176.81 13.74,-9.69 29.84,-15.98 44.22,-24.86 62.25,-38.42 124.48,-39.32 184.13,3.53 32.37,23.26 63.74,25.58 101.13,14.75 119.78,-34.68 240.5,-66.13 360.4,-100.41 76.59,-21.89 152.37,-46.6 227.95,-69.87zm-990.13 3412.79l0 0c-41.53,66.36 -100.42,68.7 -157.24,71.96 -54.6,3.13 -91.3,28.63 -115.83,75.5 -10.78,20.6 -20.92,41.65 -33.25,61.31 -15.57,24.83 -30.99,58.02 -63.88,54.36 -34.63,-3.86 -39.22,-41.61 -45.72,-69.25 -35.73,-152.08 -88,-299.93 -108.19,-456.21 -9.58,-74.17 -23.02,-152.65 -83.56,-208.06 -53.72,-49.16 -99.92,-102.94 -125.85,-172.12 -2.08,-5.53 -7.46,-9.82 -10.83,-14.09 -73.05,-6.86 -312.74,13.84 -353.3,31.6 7.42,21.41 14.85,43.16 22.48,64.85 20.71,58.89 15.25,76.49 -35.88,112.17 -10.39,7.25 -21.19,14.2 -32.59,19.65 -64.48,30.85 -115.98,76.67 -158.37,133.77 -15.1,20.35 -31.66,39.84 -49.3,58.02 -57.59,59.33 -123.13,101.88 -210.14,103.17 -71.85,1.07 -143.79,4.02 -215.42,9.65 -96.23,7.56 -160.45,-30.18 -201.3,-119.28 -47.24,-103.06 -119.86,-189.23 -202.93,-265.81 -68.69,-63.33 -164.76,-108.65 -278.9,-70.14 17.11,14.58 33.37,27.52 48.6,41.58 72.99,67.37 146.24,134.46 218.3,202.82 43.09,40.88 68.85,89.32 64.41,152.05 -4.15,58.79 27.76,96.19 82.34,112.9 40.33,12.35 81.48,23.36 123.06,29.87 33.96,5.32 59.68,12.53 70.54,51.14 3.56,12.65 26.88,24.19 43.01,27.66 17.74,3.82 38.77,1.27 56.36,-4.57 107.41,-35.68 203.38,13.72 302.37,39.22 32.81,8.45 46.06,32.29 44.95,67.22 -1.2,37.69 -13.77,69.89 -34.75,100.09 -52.45,75.53 -78.16,158.18 -71.05,251.16 3.37,44.17 0.36,88.83 0.39,133.27 0.03,35.4 -8.24,65.86 -39.29,88.7 -14.58,10.72 -29.47,27.48 -33.98,44.26 -14.76,55 -52.44,90.4 -94.27,123.78 -12.06,9.62 -22.76,20.96 -39.94,36.96 590.4,0 1170.99,0 1750.75,0 21.35,-106.85 0.56,-747.4 -31.8,-919.16zm-4459.94 4842.41c-512.24,96.98 -1007.69,226.22 -1497.76,389.07 107.05,117.39 533.2,411.33 792.89,556.57 81.87,45.78 157.78,82.1 188.72,92.1 3.51,-74.81 -2,-110.75 -2.39,-189.25 -0.31,-63.81 80.05,-86.4 140.14,-16.36 116.62,135.95 199.59,176.37 367.29,239.78 79.04,29.9 201.89,59.64 263.12,118.36 49.9,47.87 105.92,61.24 169.01,47.64 142.63,-30.75 263.64,-107.5 394.15,-185.06 -324.39,-304.25 -595.88,-666.66 -815.17,-1052.85zm1434.15 -9507.87c-11.35,0.87 -38.6,1.79 -53.76,2.79 -170.92,11.31 -341.89,21.9 -512.68,34.89 -84.24,6.41 -169.93,9.35 -251.86,27.7 -385.7,86.41 -753.9,223.51 -1107,400.34 -374.28,187.43 -720.44,418.11 -1040.24,688.23 -10.45,8.83 -18.63,20.35 -33.79,37.2 144.33,45.55 280.85,88.42 417.18,131.89 23.21,7.4 40,1.25 56.43,-16.07 27.6,-29.1 55.32,-58.55 86.25,-83.88 32.5,-26.63 58.06,-20.59 76.69,16.5 9.17,18.26 14.41,39.88 15.73,60.35 1.73,26.83 -2.17,54.02 -4.04,88.13 146.36,37.65 292.76,75.31 437.02,112.42 33.61,-34.87 29.76,-72.99 30.49,-107.48 1.06,-50.18 19.89,-88.54 55.22,-123.05 31.63,-30.9 61.65,-64.28 87.46,-100.11 44.75,-62.09 40.44,-81.81 -18.97,-133.13 -14.42,-12.45 -35.86,-23.35 -48.29,-37.53 -30.53,-34.8 -58.33,-68.46 -82.51,-107.46 -29.91,-48.29 -17.29,-90.23 30.99,-118.6 25.13,-14.77 53.32,-26.61 81.65,-33.17 120.57,-27.92 263.79,-38.4 374.54,-89.58 117.24,-54.17 243.76,-67.8 372.09,-59.5 36.79,2.38 71.56,13.25 81.29,57.35 6.94,31.47 32.38,31.68 55.29,26.93 50.1,-10.38 96.94,-28.67 134.63,-65.92 55.68,-55.01 111.09,-110.38 168.7,-163.33 132.3,-121.61 273,-231.95 422.01,-335 53.43,-36.96 113.91,-75.64 169.48,-110.91zm-592.89 5585.08l0 0c-55.59,-147.22 -187.46,-234.68 -338.37,-234.57 -39.36,0.02 -82.32,-0.33 -117.25,-15.34 -51.02,-21.94 -101.35,-26.27 -154.54,-23.68 -33.75,1.65 -67.61,3.4 -101.33,2.28 -24.4,-0.81 -50.41,-10.39 -50.16,-38.32 0.45,-52.07 -32.07,-67.29 -72.99,-81 -66.99,-22.44 -127.63,-57.04 -175.07,-110.58 -68.12,-76.89 -67.27,-181.39 3.78,-251.09 32.18,-31.57 53.04,-67.92 53.09,-111.26 0.1,-79.92 -0.38,-160.41 -9.51,-239.64 -12.82,-111.29 14.62,-200.36 113.89,-261.09 41.46,-25.37 82.14,-52.16 121.88,-80.14 44.31,-31.2 86.09,-65.45 114.02,-121.62 -282.86,-26.18 -559.39,-51.78 -834.33,-77.23 -76.65,221.1 -175.75,1487.77 -129.5,1643.28 522.84,0 1046.27,0 1576.39,0zm4558.39 4253.1c-521.8,-161.51 -1074.5,-295.84 -1607.99,-377.11 -208.9,345.03 -393.08,620.52 -634.01,893.67 238.81,-12.4 453.98,-73.55 677.1,-142.41 225.39,-69.56 266.67,-124.47 504.78,-34.82 133.91,50.41 258.55,98.89 413.62,102.21 42.22,0.91 46.76,-0.53 64.72,1.68 8.91,-6.73 65.8,-48.07 75.35,-55.18 152.02,-113.07 381.67,-272.05 506.43,-388.04zm-9338.55 -7416.06l0 0c-28.21,-17.38 -50.44,-32.28 -73.81,-45.15 -25.87,-14.26 -53.7,-25.11 -79.04,-40.19 -47.36,-28.19 -63.01,-57.86 -48.33,-111.23 9.8,-35.61 29.15,-69.99 50.25,-100.79 32.2,-46.99 67.58,-92.19 105.24,-134.95 68.84,-78.17 76.2,-163.93 38.48,-265.35 -420.15,304.34 -800.48,645.14 -1140.07,1046.36 222.01,70.37 436.68,136.06 661.18,197.78 -1.75,-54.77 35.48,-71.17 68.17,-90.14 41.35,-24 65.9,-57.18 72.14,-105.31 4.87,-37.63 12.39,-75.04 20.96,-112.04 8.46,-36.49 27.62,-67.97 63.14,-82.55 22.92,-9.41 49.16,-14.38 74.01,-14.77 95.61,-1.52 134.93,-72.91 187.68,-141.67zm2675.8 4373.12c-13.61,72.49 -47.71,133.99 -88.83,194.13 -25.73,37.63 -51.16,80.47 -59.14,124.18 -15.77,86.39 -19.32,175.01 -28.86,272.17 218.85,-29.66 430.1,-58.3 646.2,-87.59 -53.23,-301.87 -98.67,-592.08 -126.11,-897.92 -17.57,-195.65 -27.28,-393.85 -39.42,-590.05 -210.17,0 -411.67,0 -616.61,0 7.31,38.95 30.54,49.02 60.39,48.98 31.68,-0.04 63.36,-2.35 95.04,-2.39 46.39,-0.07 93.25,-2.95 139.08,2.41 93.8,10.96 137.38,55.41 156.01,147.6 16.32,80.74 2,160.1 -10.26,239.15 -17.77,114.66 -38.41,228.91 -59.91,342.94 -13.95,73.94 -56.08,145.09 -67.58,206.39zm5669.09 -6528.95c6.54,4.63 12.34,7.9 48.52,28.04 74.25,40.42 149.58,78.94 222.8,121.15 351.2,202.45 677.44,439.25 974.46,715.42 31.98,29.74 59.63,36.34 100.85,20.97 196,-73.03 393.11,-143.11 589.65,-214.73l57.79 -20.61c-15.19,-6.89 -44.95,-17.71 -60.16,-24.51 -626.74,-280.34 -1268.49,-487.68 -1933.91,-625.73zm-7501.89 7423.3c192.78,-39.45 378.55,-77.84 564.54,-115.1 26,-5.21 37.67,-23.84 38.35,-43.87 0.63,-18.45 -6.45,-45.47 -19.71,-54.24 -23.42,-15.49 -53.54,-24.95 -81.88,-28.25 -144.65,-16.88 -145.68,-15.67 -182.06,-154.72 -10.69,-40.87 -31.31,-71.21 -62.89,-99.2 -22.42,-19.88 -40.69,-48.91 -50.5,-77.41 -11.45,-33.28 -14.09,-70.29 -16.19,-105.93 -2.59,-44.25 -0.38,-88.78 -0.83,-133.18 -0.65,-63.35 -0.88,-63.43 -64.77,-80.25 -26.56,-6.99 -53.24,-13.51 -79.78,-20.56 -82.3,-21.86 -99.97,-42.51 -107.58,-125.94 -1.15,-12.61 -3.05,-25.62 -1.24,-37.95 7.82,-53.12 -17.78,-88.37 -58.68,-117.06 -88.06,-61.75 -175.99,-123.76 -244.73,-228.2 61.53,474.59 173.52,920.89 343.17,1358.97 8.14,21.01 16.4,41.98 24.78,62.89zm2480.73 3063.78c-105.4,-62.22 -212.82,-120.96 -317.77,-183.69 -270.94,-161.92 -527.42,-344.11 -763.75,-553.68l-48.37 -40.44c-174.45,71.26 -404.68,155.57 -579.8,227.49 468.74,224.45 1018.66,390.29 1520.75,514.4 34.81,8.6 132.76,29.39 188.94,35.92zm-1327.22 -10088.39c9.57,16.55 29.06,43.53 40.26,58.98 43.67,60.21 96.79,105.98 174.26,125.4 51.17,12.83 56.57,42.11 24.93,86.18 -37.59,52.35 -89.08,84.82 -154.11,89.05 -47.79,3.11 -95.94,0.61 -143.94,0.61 47.56,25.85 98.48,43.77 148.12,64.7 33.06,13.93 57.23,10.05 85.35,-15.08 337.52,-301.64 708.96,-554.47 1108.97,-765.8 18,-9.51 35.36,-20.24 53.02,-30.4 -455.71,90.32 -900.52,222.55 -1336.86,386.36zm251.84 709.03c-63.77,90.31 -151.71,139.38 -246.01,179.77 -13.22,5.67 -32.8,13.25 -35.62,23.69 -15.61,57.7 -54.19,90.45 -106.92,111.55 -7.11,2.84 -12.01,11.68 -17.42,18.17 -56.87,68.29 -113.17,137.06 -170.69,204.78 -18.34,21.59 -26.67,41.46 -9.99,68.15 35.5,56.8 26.01,112.95 -5.32,168.17 -7.29,12.85 -13.69,26.24 -19.98,39.64 -12.81,27.28 -13.66,52.94 10.8,75.08 26.31,23.82 48.63,5.66 67.73,-9.34 59.84,-47 116.38,-98.3 177.25,-143.85 58.99,-44.14 85.46,-102.93 91.7,-173.24 9.63,-108.46 62.4,-190.24 149.18,-254 20.78,-15.28 40.97,-39.32 48.41,-63.37 26.46,-85.43 85.36,-128.01 169.52,-141.71 43.67,-7.1 87.66,-12.22 144.24,-19.98 -82.29,-27.84 -164.59,-55.68 -246.88,-83.51zm8089.34 972.25l0 0c-27.76,46.81 -29.67,56.35 -13.67,95.11 21.95,53.15 49,103.28 96.43,138.87 41.94,31.47 69.81,72.65 86.84,121.92 8.27,23.94 20.62,46.71 26.72,71.11 14.34,57.4 41.63,104.62 90.2,140.48 23.39,17.27 44.34,39.54 44.91,73.05 0.61,35.91 4.5,71.88 3.23,107.69 -2.55,71.74 -48.05,101.22 -116.7,76.45 -25.76,-9.29 -49.91,-22.97 -75.52,-32.75 -49.92,-19.07 -77.87,-4.12 -85.12,48.81 -8.2,59.81 -2.79,148.45 -2.79,211.33 132.53,-28 324.24,-66.76 451.58,-96.08l-32.38 -77.29c-124.88,-291.99 -270.68,-573 -443.01,-839.97 -7.59,-11.76 -17.41,-22.08 -30.72,-38.73zm-109 7816.6c-215.32,-90.88 -461.03,-177.06 -663.76,-245.59 -92.86,86.71 -182.12,162.41 -275.85,248.23 40.63,-2.63 67.54,-5.31 94.5,-5.96 128.8,-3.11 257.77,-10.89 386.36,-6.8 107.14,3.41 215.97,11.69 315.01,72.73 48.36,-21.42 95.39,-41.18 143.74,-62.61zm-9800.53 -4574.18l0 0c41.39,0 83.92,0.32 117.19,-0.06 24.25,-14.89 41.49,-23.27 62.08,-42.56 32.08,-30.06 64.44,-66.49 57.09,-111.45 -13.92,-85.13 -24.29,-170.85 -39.36,-255.76 -3.7,-20.85 -14.83,-45.87 -30.86,-57.98 -43.23,-32.65 -90.93,-59.37 -146.2,-94.35 -13.39,190.31 -29.88,369.69 -19.94,562.16zm-158.94 -960.3l0 0c5.21,-13.37 9.59,-20.5 10.7,-28.1 31.07,-212.93 74.06,-423.39 128.42,-631.59 3.82,-14.62 2.17,-30.67 3.14,-47.51 -144.47,24.46 -221.4,107.79 -242.97,244.19 -7.24,45.74 -9.84,92.25 -17.71,137.86 -22.29,129.24 37.55,227.23 118.42,325.15zm1364.86 -3478.86l0 0c-110.42,-46.53 -214.78,-91.47 -320.32,-133.42 -10.27,-4.09 -30.88,7.03 -41.38,16.8 -16.73,15.58 -12.8,38.44 3.26,50.62 61.96,47 125.88,91.4 189.07,136.76 53.73,-22.44 107.45,-44.89 169.37,-70.76zm5842.58 424.37l0 0c-43.99,-69.6 -87.17,-137.92 -137.01,-216.77 -11.7,57.36 -23.29,99.58 -28.08,142.57 -3.42,30.67 -1.87,63.31 4.98,93.36 8.35,36.63 28.8,47.27 65.65,43.89 38.45,-3.53 66.37,-24.38 94.46,-63.05zm-7021.07 4542.23c52.67,-95.53 78.4,-196.34 57.51,-305.36 -26.01,0 -49.67,0 -78.22,0 3.07,103.09 9.98,203.57 20.71,305.36zm10808.46 -305.21l0 0c-63.13,-6.01 -63.13,-6.01 -104.11,8.71 35.63,15.39 66.86,28.89 104.11,45 0,-23.18 0,-36.82 0,-53.71zm-6131.7 -5376.48l0 0c-30.15,23.44 -56.24,34.71 -69.96,64.06 50.52,-0.85 50.52,-0.85 69.96,-64.06z"/>
   <path fill="#3061A8" fill-rule="nonzero" d="M15732.45 8854.53c-73.89,11.64 -74.44,-2.72 -101.87,-94.17 -23.47,-78.23 -32.45,-156.38 -30.46,-236.46 0.77,-31.03 6.16,-63.4 16.89,-92.41 18.5,-50.01 32.39,-53.59 86.85,-41.71 15.23,3.32 32.13,0.02 48.14,-1.57 16.58,-1.64 32.97,-6.84 49.51,-7.12 114.67,-1.91 118.72,44.21 110.19,115.72 -5.49,46.02 -6.04,92.76 -13.67,138.37 -9.35,55.88 -32.31,106.56 -87.38,131.77 -21.95,10.05 -25.2,26.66 -27.01,44.54 -4.44,43.92 -6.56,36.01 -51.19,43.04z"/>
   <path fill="#3061A8" fill-rule="nonzero" d="M5050.72 6283.13c-4.5,-14.55 -9.5,-26.21 -11.58,-38.38 -4.27,-25 -18.46,-34.66 -43.31,-36.58 -35.4,-2.73 -70.54,-8.92 -106.27,-13.7 -6.88,-21.58 -12.51,-39.25 -19.5,-61.18 -13.93,-3.07 -30.37,-5.19 -45.81,-10.34 -55.97,-18.65 -74.6,-80.67 -45.01,-131.66 18.45,-31.81 41.31,-51.25 76.89,-57.91 30.85,-5.77 57.29,-0.27 64.12,33.55 9.84,48.84 40.74,63.54 85.64,63.58 41.92,0.05 83.86,1.9 125.77,3.34 48.61,1.66 59.84,14.1 55.72,61.86 -2.9,33.52 -8.31,66.92 -9.36,100.47 -2.23,71.44 -34.24,106.15 -102.39,89.95 -6.07,-1.45 -12.46,-1.55 -24.91,-3z"/>
   <path fill="#3061A8" fill-rule="nonzero" d="M5313.9 6362.84c-67.61,38.57 -62.55,-44.05 -104.14,-51.63 6.91,-15.31 8.89,-26.55 15.54,-32.9 11.13,-10.61 30.25,-28.25 37.1,-24.87 16.88,8.32 33.75,24.71 41.24,41.93 8.63,19.83 7.18,44.04 10.26,67.47z"/>
   <path fill="#3061A8" fill-rule="nonzero" d="M14495.89 6485.16c-104.63,-12.55 -99.98,-40.43 -60.07,-102.69 26.36,-41.12 52.21,-81.54 53.78,-129.84 1.24,-38.21 -6.8,-36.03 46.2,-42.32 52.68,-6.27 80.62,15.79 104.25,73.89 11,27.06 -14.38,105.58 -20.85,137.32 -10.18,49.96 -13.68,76.77 -123.31,63.64z"/>
   <path fill="#3061A8" fill-rule="nonzero" d="M14427.95 6645.19c-9.77,-79.48 37.62,-124.94 118.35,-113.74 122.23,16.96 197.35,5.69 87.09,162.06 -24.61,34.9 -73.63,36 -115.47,31.13 -70.65,-8.24 -82.46,-18.29 -89.97,-79.45z"/>
   <path fill="#3061A8" fill-rule="nonzero" d="M14308.24 6662.56c5.46,62.67 42.98,194.26 -29.01,211.5 -68.49,16.38 -93.55,-75.22 -118.27,-132.65 -19.35,-44.95 -26.93,-69.19 54.61,-97.9 78.31,-27.57 88.86,-24.68 92.67,19.05z"/>
   <path fill="#3061A8" fill-rule="nonzero" d="M14047.79 6983.51c-53.21,-1.85 -77.79,-14.59 -83.12,-77.57 -4.23,-50.01 12.87,-77.33 60.63,-75.57 71.57,2.64 83.66,27.72 87.76,64.86 4.98,45.1 -1.07,90.51 -65.27,88.28z"/>
   <path fill="#3061A8" fill-rule="nonzero" d="M14218.03 7935.59c37.93,-33.25 79.26,-62.62 119.23,-93.53 44.79,-34.64 91.18,-67.41 133.97,-104.34 34.63,-29.9 68.34,-34.7 110.39,-17.72 71.25,28.78 118.47,75.39 138.54,151.79 8.14,31.01 5.69,55.29 -16.51,74.4 -91.66,78.89 -186.8,144.36 -319.48,101.6 -40.81,-13.15 -87.23,-9.31 -131.14,-12.31 -96.54,-6.58 -110,-34.16 -35,-99.89z"/>
   <path fill="#3061A8" fill-rule="nonzero" d="M14903.5 10926.15c54.12,-54.66 117.34,-98.24 188.19,-126.52 193.14,-77.08 333.81,-208.8 430.52,-391.81 21.11,-39.95 45.1,-78.8 75.61,-114.15 81.7,-94.63 97.8,17.86 85.83,85.78 -6.42,36.45 -21.54,73.28 -40.61,105.28 -94.8,159.16 -213.51,301.45 -354.8,418.57 -96.21,79.75 -215.98,131.41 -343.21,151.95 -157.01,25.36 -120.24,-49.61 -41.53,-129.1z"/>
   <path fill="#3061A8" fill-rule="nonzero" d="M10802.33 8762.42c-0.25,-16.59 4.48,-33.39 7.95,-49.9 15.39,-73.33 3.38,-134.36 -59.05,-186.54 -62.07,-51.88 -62.29,-100.14 -17.66,-166.91 24.51,-36.67 48.81,-73.56 71.05,-111.61 20.2,-34.56 53.78,-42.6 87.13,-40.41 43.81,2.89 87.59,12.39 130.37,23.08 36.04,9 56.1,36.04 61.35,72.97 8.01,56.39 15.73,112.83 23.35,169.28 4.8,35.56 -6.31,66.58 -27.68,94.65 -40.91,53.74 -81.11,108.03 -122.62,161.31 -22.13,28.4 -48.24,51.18 -79.95,70.03 -60.08,35.7 -73.06,42.83 -74.24,-35.95z"/>
   <path fill="#3061A8" fill-rule="nonzero" d="M9605.62 2783.04c25.29,35.06 15.45,63.55 -29.48,94.27 -15.46,10.56 -28.67,24.4 -43.28,39.8 -26.75,28.22 -23.41,28.59 -63.36,11.95 -27.85,-11.6 -56.08,-24.6 -51.58,-62.42 4.35,-36.56 26,-64.01 58.34,-77.13 37.96,-15.38 101.56,-45.04 129.36,-6.47z"/>
   <path fill="#3061A8" fill-rule="nonzero" d="M12134.8 3081.48c-60.21,-7.61 -120.93,-12.5 -180.42,-23.85 -34.82,-6.64 -49.77,-36.73 -51.25,-71.3 -1.42,-33.18 -8.89,-69.02 30.43,-88.55 5.62,-2.8 11.54,-10.36 15.97,-9.41 56.58,12.18 118.55,-20.51 171.37,19.29 26.51,19.98 53.23,20.74 83.23,10.08 41.72,-14.83 84.04,-27.97 126.22,-41.49 33.01,-10.58 67.51,-20.31 92.06,14.3 24.08,33.95 26.72,73.64 2.76,106.97 -16.18,22.51 -41.41,45.35 -67.04,52.85 -59.54,17.44 -119.83,39.89 -184.58,25.48 -12.06,-2.68 -25.23,-0.38 -37.89,-0.38 -0.29,2 -0.58,4.01 -0.86,6.01z"/>
  </g>
 </g>
</svg>
